<svg xmlns="http://www.w3.org/2000/svg" viewBox="0 0 912.86 728.78"><defs><style>.cls-1{fill:#141221;}.cls-2{fill:none;}.cls-3{fill:#4352ff;opacity:0.51;}.cls-4{fill:#c8d9ed;}.cls-5{fill:#42388c;}</style></defs><title>autoportrait-sombre</title><g id="Calque_6" data-name="Calque 6"><path class="cls-1" d="M119.46,373.79C129.69,190.23,280,46.2,456.43,43.3c182.32-3,324.15,145,342.81,290.47,4.63,36,9.47,114.2-30.5,196.56C715.61,639.84,596.89,727.1,456.43,725.93c-11.44-.09-178-4.34-276.36-145.49C120.59,495.08,118.6,406.35,119.46,373.79Z"/><path class="cls-1" d="M390.24,51.63c-7.1-5.7-41.48-32.07-90-27.14-43,4.36-69.38,30.47-76.47,37.71a131.15,131.15,0,0,0-33.9,62.65c-51.7-17.33-107.72-7.33-144.7,27.63C-9.47,204.11-4.59,294.05,29.71,333.56c16.81,19.36,40.91,30,40.91,30a118.78,118.78,0,0,0,51.14,10.07Q256,212.64,390.24,51.63Z"/><path class="cls-1" d="M650,106.41a165.26,165.26,0,0,1,54.31-28.48C710.72,76,782.52,55.58,846.5,99.45c13.63,9.36,41.36,28.2,54.16,64.55,18.36,52.16-8.33,99.51-12.86,107.56a129.53,129.53,0,0,1-27.72,34.29c-28.16,24.09-59.77,28.51-73,29.57Q718.57,220.91,650,106.41Z"/><path class="cls-1" d="M134.51,456a259,259,0,0,1-69.22,28,8.77,8.77,0,0,0-3.48,9.85,8.86,8.86,0,0,0,10.7,5.4q13.71-5,28.78-9.76,17-5.33,32.85-9.36Q134.32,468.05,134.51,456Z"/><path class="cls-1" d="M140.2,486.88c-13.74,4.2-28.29,9.27-43.45,15.4q-13.19,5.34-25.12,10.93a9.54,9.54,0,0,0-4,10.16,9.65,9.65,0,0,0,10.89,6.74c9.39-4.33,19.83-8.64,31.29-12.65A350.21,350.21,0,0,1,145.9,507Z"/><path class="cls-1" d="M548.07,58.68A279,279,0,0,1,567.74,27.5q4.14-5.67,8.3-10.82c1.67-1.72,9.23-9.11,19.69-8.41,2,.14,6.1.41,9.44,3.24,5.18,4.38,6.47,13.09,3.21,22-4.81,5.15-9.81,10.91-14.84,17.3-4.81,6.11-9,12-12.79,17.68Z"/><path class="cls-1" d="M593.8,75.08l25.5-34.2a10,10,0,0,1,15.58,12.37Q628,60,621,67.46T607.73,82Z"/><path class="cls-1" d="M618.71,86a268.14,268.14,0,0,1,73.92-59.35,18.65,18.65,0,1,1,15.68,33.83,181.84,181.84,0,0,0-69.87,36.1Z"/><path class="cls-1" d="M796.75,424.78l32.57-7.68c25.67-2.22,47.76,15.63,51,37.61,3.69,24.92-17.44,51.09-47,51.63L773.42,501Q785.09,462.88,796.75,424.78Z"/><path class="cls-1" d="M773.69,509.39l62.52,7.55a13.73,13.73,0,1,1-2,27.29l-76.23-16Z"/></g><g id="Calque_3" data-name="Calque 3"><polygon class="cls-2" points="464.04 586.49 463.9 586.55 464.02 586.63 464.04 586.49"/><path class="cls-2" d="M445,229.58l-.53.08H445S445,229.6,445,229.58Z"/><path class="cls-2" d="M374.48,248.7c-2.54,1.19-5.11,2.36-7.72,3.48a16.89,16.89,0,0,0,4.19-.45A5.77,5.77,0,0,0,374.48,248.7Z"/><path class="cls-2" d="M311.32,665.15l.3,3.1.87-.14-.63-3Z"/><path class="cls-2" d="M443.69,211.12c0-.14-.06-.27-.09-.41-.33.42-.75.83-.76,1.25,0,1.26,0,2.43,0,3.51A4.71,4.71,0,0,0,443.69,211.12Z"/><path class="cls-2" d="M289.43,470.55a115.36,115.36,0,0,0,5-22.51l-5-4.14q-1.53,7.59-3.1,15.24-1.8,8.72-3.63,17.34l3.89,1.75C287.59,475.81,288.55,473.25,289.43,470.55Z"/><path class="cls-2" d="M232,405.9c-2.71,12.56-3.35,16.05-5.54,25.84-1.2,5.35-1.12,4.83-2.1,9.24-1.84,8.3-3.2,15.08-4.08,19.63l7.41.88c.53-3.81,1.29-8.87,2.35-14.8.36-2,2.09-11.19,4.91-23.54,1.42-6.19,3.16-12.31,4.92-19.12l-5.66-8.23C233.26,400.19,232.5,403.71,232,405.9Z"/><path class="cls-2" d="M303.7,492.54a13.31,13.31,0,0,0,2.55,1.46c.06-5.35.26-10.95.66-16.79.52-7.73,1.31-15,2.28-21.84l-2.86-1.69q-1.32,4.85-2.45,10.09a196.31,196.31,0,0,0-3.7,24.94A13.46,13.46,0,0,0,303.7,492.54Z"/><path class="cls-2" d="M251.56,414.88h.28v.78h-.25a20.54,20.54,0,0,1-.18,3.7c-1.37,8.34-3,16.63-4.53,24.93-1.09,5.8-2.27,11.58-3.43,17.37-.18.92-.44,1.84-.66,2.76l7.17,2a169.57,169.57,0,0,1,3.69-20.33c1.33-5.36,2.91-10.61,4.42-19.12.58-3.3,1-6,1.2-7.84l-7.8-7.5C251.47,412.72,251.52,413.81,251.56,414.88Z"/><path class="cls-2" d="M691.92,402.46l-8.28-6.29a166.1,166.1,0,0,1-12.31,14.77c-2.35,2.51-4.69,4.85-7,7a16.8,16.8,0,0,1,1.87,3.35,16.15,16.15,0,0,1,1.16,4.89A151.36,151.36,0,0,0,684,411.35C686.92,408.33,689.55,405.35,691.92,402.46Z"/><path class="cls-2" d="M384.84,308.59l0-.26-.15.07c0,.05,0,.12,0,.15A.43.43,0,0,0,384.84,308.59Z"/><path class="cls-2" d="M652,381.82a102.3,102.3,0,0,1-7.14,9.47l3.76,5.09c1.93-2.33,3.94-5,5.94-7.92a102.64,102.64,0,0,0,5.47-9.07l-3.61-4.83C655.14,376.88,653.67,379.31,652,381.82Z"/><path class="cls-2" d="M648.65,669.21,627.3,682.37C634.86,678.05,642,673.64,648.65,669.21Z"/><path class="cls-2" d="M394.68,201.39l-1.17.79c0,.75,0,1.51,0,2.26a4.48,4.48,0,0,1,3-.86A27.93,27.93,0,0,0,394.68,201.39Z"/><path class="cls-2" d="M395.77,234.8a5.34,5.34,0,0,1,1-.12c1.73-.05,1.94-.12,2.78-1.32l-.24-2.59a7.27,7.27,0,0,1-1.67-.33,5.66,5.66,0,0,1-2.34-1.47Q395.56,231.9,395.77,234.8Z"/><path class="cls-2" d="M631.35,349a21.3,21.3,0,0,0-1.76-1.41q-.68,2.91-1.59,6a107.14,107.14,0,0,1-8.38,20.27l7.69,4.77A91.85,91.85,0,0,0,633.43,364a88.29,88.29,0,0,0,2.49-9.44A23.11,23.11,0,0,0,631.35,349Z"/><path class="cls-2" d="M608,345.14c-2,6-4,11.65-6.14,17l4.74,3.55a54.18,54.18,0,0,0,6.63-10.16A55.7,55.7,0,0,0,619,333.61l-5.34-7.79C612.06,332,610.18,338.42,608,345.14Z"/><path class="cls-2" d="M453.75,724.41h0c6.23.12,12.35.05,18.39-.16,4.48-33.15,9.15-66.13,16.64-99.17C473.88,657.16,461,689.8,453.75,724.41Z"/><path class="cls-2" d="M479.64,723.9q4.2-.24,8.34-.58c-1.66-8.53-3.33-17.07-5.06-26C481,705.18,480.7,715.13,479.64,723.9Z"/><path class="cls-2" d="M331.92,572.1c-4.43,40.95-12.33,81.26-10,122.18q7.33,3.33,15.08,6.43C338,657.81,337.6,615.22,331.92,572.1Z"/><path class="cls-2" d="M669,636.77c-14.18,13-34.63,20.21-56.87,47.33-1.79,2.18-3.32,4.16-4.61,5.9,61.62-30.22,101.23-71.81,115.42-88.21l-27.38-29.18C692.41,608.44,680,626.69,669,636.77Z"/><path class="cls-2" d="M320.24,530.94c-26.18,33.14-17.17,44.28-17.48,74.79-.44,25.36-3.08,51.08-4.43,76.72q6.21,3.4,12.78,6.68C317,624.78,333.87,567.9,320.24,530.94Z"/><path class="cls-2" d="M606.24,555.64c7.23-19,19.49-18.06,6.58-35.41C596,479,561.87,518.66,547.18,507c-4.33-8.17-4.74-20.78-11.63-5.15-10.5,26.19-13.3,53-15.16,81.18-20.71,43.2-31.4,91.19-24.63,139.6,4.24-.45,8.42-1,12.55-1.59,1-9.3,2.12-18.56,3.07-27.83,1.14-11,1.94-22.09,3.22-33.1a109.44,109.44,0,0,1,9.45-33.25c3.19-7,4.11-15,6.09-22.56a19.82,19.82,0,0,1,1.11-2.67c.72,1.84,2,3.67,2,5.52.11,7.18-.59,14.39-.24,21.55.4,8,1.64,16,2.45,24.05.42,4.24.73,8.49,1.08,12.75.65-2.43.41-4.83.69-7.18,1.71-14.78,3-29.64,5.46-44.3,2.92-17.14,6.85-34.11,10.54-51.11,1.51-7,3.9-13.71,5.2-20.68,1.61-8.67,2.52-17.47,3.73-26.22,6.59-8.43,11.13-11.38,22.28-9.64,2.24.35,5.21.2,6.52,1.56,4.42,4.61,3.94,10.41,2,16-3.3,9.29-6.84,18.5-10.4,27.7-3.08,8-6.34,15.84-9.52,23.75-2.32,8.57-4.63,17.14-7,25.69-.51,1.82-1.22,3.58-1.83,5.36-3.44,9.54-7.74,18.87-10.12,28.67-3.35,13.78-5.33,27.9-7.8,41.89-1.46,8.22-2.94,16.44-4,24.71-.47,3.54.08,7.2.12,10.82v1.71a336.24,336.24,0,0,0,33.31-10.45,378.24,378.24,0,0,1,7.11-74.17C591.12,587.52,600.74,570.09,606.24,555.64Z"/><path class="cls-2" d="M538.08,691.05c-.22-1.5-.4-3-.67-4.51-1.92-10.62-4-21.22-5.73-31.87-1-6.18-1.44-12.45-2.2-19.34-2,5.38-4.15,10-5.27,14.78-2.36,10.22-4.64,20.5-6,30.88-1.15,8.56-.9,17.3-1.43,26-.27,4.3-.7,8.6-1.11,12.89q11.57-2,22.57-4.64,0-8,0-16.07Q538.16,695.08,538.08,691.05Z"/><path class="cls-2" d="M247.58,565.25c-12.54,2.24-23.94,18.62-23.69,33.66-2.62,10.22.11,21.45,2.82,32.23q2.82,2.58,5.9,5.27C258.26,580,221.75,612.48,247.58,565.25Z"/><path class="cls-2" d="M308.92,293.05a.17.17,0,0,0,0,.07l.07,0Z"/><path class="cls-2" d="M257.21,574.27c-4.23,33.07-9.81,55.58-13.34,71.61,4.52,3.64,9.34,7.36,14.47,11.11a71.34,71.34,0,0,1,.77-12.61c1.56-8.51,4.2-16.81,6.44-25.19,2-7.67,4.34-15.27,6.18-23,.82-3.42.65-7.07,1.27-10.55.23-1.3,1.4-2.45,2.27-3.57a1.92,1.92,0,0,1,1.42.32,29.59,29.59,0,0,1,.59,5.21c-.07,5.93-.26,11.86-.43,17.79-.25,8.49-.64,17-.76,25.48-.18,12.25-.18,24.51-.26,36.76l-.14,1.28q2.78,1.8,5.64,3.59c7.32-137.19,3.6-113.45,39.95-154.81C294,526.78,278.22,556.05,257.21,574.27Z"/><path class="cls-2" d="M232.61,636.41q-3.08-2.68-5.9-5.27c1,4.08,2,8.09,2.76,12C230.61,640.74,231.65,638.52,232.61,636.41Z"/><path class="cls-2" d="M327.05,368.83c-.09-10.58-6.45-19.62-4.63-31.8C314.58,351.58,316.07,362.17,327.05,368.83Z"/><path class="cls-2" d="M415,538c-10.63-9.17-23.54-15-34.84-24.66-.29.37-.59.73-.88,1.09,9.82,21.71,26.58,36.24,48.07,45.92C420.86,554.29,420.14,545.83,415,538Z"/><path class="cls-2" d="M474.14,577.73c-14.44-1.44-31.83.82-45.52-6.82-12.86-6.62-104.56-60-56.12-44.5-2.53-8.49-19.91-13.53-20-22.14,6.54,2.79,13.42,8,19.94,12.46-5.7-7.13-12.78-13.78-19.57-20.53l4-1.85c-7.72-5.35-20.5-6.74-23.21-15.13-.67-17.54-9.66-31.42-1-47.11-6.84-11.84-7.49-13.67-4.15-26l-1.29-.51c-7.85,22.73.54,50.65.6,75.11,3.74,64.63,37.56,113.08,49.08,170,70.37,5.79,117.06-47.66,131-99.76-5.52,5.42-10.92,10.13-19,13.13C486.28,571.69,478.3,570.34,474.14,577.73Z"/><path class="cls-2" d="M362.44,631.11s-.26,0,0,.24l.13-.11Z"/><path class="cls-2" d="M674.74,555.88c-4.27-2.46-9.86,1.53-14-1.07-6.23-8.93-12.21-17-22.73-14.91,15.1,37-14.14,58.52-31.21,85.32-16.25,21.06-20.3,47-18.88,73.2,10.59-17.42,17.88-37.37,30.26-54.24,18.62-17.44,32.07-36.1,45.73-57.61C676.32,568.15,694.86,568.42,674.74,555.88Z"/><path class="cls-2" d="M342,607.67c-6.73,35.63,4.68,31.19,25.49,41.4C363.9,632.12,357.27,617.43,342,607.67Z"/><path class="cls-2" d="M580.16,294l4.9,4.63c-27.37-3.68-40.23,4.19-58.54,2.32,10.24-18.29,16-12.93,29.75-15.31,21.47-2.76,34.21-6,44.36,12.81,11.69-61.58,13.22-101.75-21-137.64l0,0c-8.9-13.13-47.3-31-52.79-15.93,3.14,14.1-18.66,10.69-27.18,11-16.23-6.2-28.58-19.68-46.69-21.48v0c-60.59-16-67.57,17.43-88.37,56.26l17.67-12.22c0,1,.09,2.06.13,3.09a102.3,102.3,0,0,1-7.93,8.71,104,104,0,0,1-11,9.38L362,204.33q3.51-2.18,7.1-4.54c5.08-3.35,9.85-6.73,14.33-10.09.39,1,.78,1.91,1.16,2.87-3.47,3.68-7.19,7.46-11.18,11.29s-8,7.48-11.88,10.83l-.48,4q6.38-3.82,13-8.18,6.87-4.5,13.08-9l1.38,1.89q-8.55,8.44-17.73,17-6.07,5.67-12.08,11.06l-1.17,4.65a146.89,146.89,0,0,1,12-8.76A142.05,142.05,0,0,1,383,219.59l-.6,5.1a103.51,103.51,0,0,0-10.11,7.71A105.22,105.22,0,0,0,357,248.7c-.51,3-1,6-1.52,9a120.74,120.74,0,0,1,24.85-10.74l.27,2.53c-4.3,3.7-9,7.51-14.17,11.33-4.77,3.54-9.41,6.72-13.86,9.57L342.12,309.2c.53,1.14,1.05,2.36,1.53,3.66a54.65,54.65,0,0,1,2.66,9.86c.26,37,5.6,33.81,4.48,46.58l-1.31,0c-.1-.57-.21-1.14-.28-1.53-8.75,9.75,17.06,17.1-2.31,26.62-1,2.54.55,4.43.88,8l1-.18c2.32,2.85,2.1,4.35-4.45,6.72l3.06,5.26-3.58,1.5c.2,26.59-6.48,53.75,16,70.36l3.15-1.46c-1.55,6.8,1.9,11.69,7.5,17.36-.53-2.75-.5-2.51.42-6.11,6.16,5.15,6,14.77,17,14,32.69,33.14,58.47,16.78,66.3,32.07l1.16.35.38-.2h0a11.25,11.25,0,0,0,3-2.26C476,554,471.44,515,484.37,543.58L486,541.7c13.31,14.26,37.08-33.28,44.14-39.81l-.07,0c83.85-133.09,53-173.67,68.9-198.71C594.31,298.85,587.48,289.65,580.16,294Z"/><path class="cls-2" d="M328.78,377.4c-13.26-1.36-18-10.11-22.46-19.07-5.77-12.38,6.8-21,12.89-30.92.9-3.07,0-4.7-2.81-7.4-19.31-20.06-16.08,4.61-19.72,17.35,1.71,28,1.13,49.77,31.25,54.56-12.66,5.36-20.21-.79-27.35-8.3C312.78,415.68,340,402.11,328.78,377.4Z"/><path class="cls-2" d="M280.36,313.57c4.16-20.93,29.14-10.16,38.33,1.55v0l.09,0,0,.09a.39.39,0,0,1-.08-.1l-.15.36c10.43,14.16,7.08,34.75,13.8,51.39,4.35-23,.26-55.53-16.88-63.91a.21.21,0,0,1,.16-.28c-20.76-11.4-27.35-8-40.1,7.37a259.33,259.33,0,0,0,6,27.34c5.85,21.13,14.12,40.56,15.13,40.22.44-.15-.21-4.13-5.55-22.38C289.39,341.92,280.49,328.24,280.36,313.57Z"/></g><g id="Calque_11" data-name="Calque 11"><path class="cls-3" d="M453.72,108.27a111.78,111.78,0,0,1,13.16-65,165.18,165.18,0,0,0-53.75,3.21,91.19,91.19,0,0,1,20.86,22,92.89,92.89,0,0,1,15.24,43.63Q451.48,110.2,453.72,108.27Z"/><path class="cls-3" d="M612.88,149.56a106.86,106.86,0,0,0-10.37,33.51c4.72,7.89,10.29,20.3,9.7,35.45a54.78,54.78,0,0,1-.62,6.48c4.5,5.42,17.07,19.06,38.07,24.07A66.7,66.7,0,0,0,685.07,248c29.36-9.47,56.4-43.45,48.13-72.51-3.69-13-15.09-27.31-32-31-19.47-4.28-34.73,8-37,9.92-3.49,2.91-11,9.19-12.77,19.74a25.23,25.23,0,0,0,1.71,15c5.17,11.22,19.4,18.14,27.54,14.59,5.28-2.29,9.19-6.13,12.27-8.07.18-.12,1.16.52,1.32,1a14.83,14.83,0,0,1,.13,8.41c-2.17,6.5-9,12.1-16.48,14.42-.49.15-9.16,2.69-17.58-.17-17.37-5.9-30.63-33.71-23.59-54.8,9.33-28,46-36.16,65.2-32.45a68.54,68.54,0,0,1,11.51,3.55c4.49,2.25,17.81,7.69,26.47,21.18,8.19,12.77,8.05,25.82,7.94,30.8-.78,32.8-29.41,62.08-58.22,69.16-2,.48-3.61.78-4.63.95.49,1.72.79,2.88,1.16,4,1,3.06,5.12,15.33,17,28.89,16,18.24,36,28.63,37.93,29.58,23.85,11.79,51,15.14,71.47,11.47C868.55,321.53,918,251,907.89,184.64c-11.66-76.8-98.12-115.48-160-113.83-54.76,1.47-95.49,34.65-102.72,40.54C636.43,118.46,622.86,129.77,612.88,149.56ZM746.31,253.11c18.93,17.54,45,23.28,67.09,14.73,29-11.21,41.41-43.23,39.35-66.12-3.33-37-46.37-72.08-104.24-69.28l-14.68-7.73c10.35-2.17,49.68-9.13,86.52,14.58,11,7.11,37.87,24.37,43.09,57.25,4.26,26.87-6.41,61-36.14,77.27C799.43,289.05,764,283.52,741,259.94Zm33.4-153.66c10.46,2.14,81.57,16.7,101.07,78,1,3.2,17.6,58.51-19.57,99.14-28.31,30.95-67.23,30.89-71.87,30.8-44.29-.8-70.09-32.28-73.48-36.57l9.87-5.3c2.63,3,32.43,35.87,76,30.32,38.71-4.92,65.88-37.26,72.67-70,7.91-38.09-13.56-67.84-17.56-73.16-12.58-16.71-27.59-24.55-36.58-29.12-47.67-24.22-98.22-13-117.51-7.59-2-.44-4.07-.85-6.24-1.2a115.12,115.12,0,0,0-16.3-1.48C694.19,106.38,732.59,89.8,779.71,99.45Z"/><path class="cls-3" d="M361.22,131.87c-3.49-3-23-19-47.91-14.9-29.14,4.75-49.47,34.31-49,63,.53,33.92,30,53.08,32.42,54.62a84.2,84.2,0,0,0-14.5,12c-25.63,26.7-25.38,62.16-25.16,69.53a100.67,100.67,0,0,0,45.7,81.33c-1.25-2.32-3.38-6.28-6.05-11.2-6.63-12.23-12.63-23.06-12.56-23.1l0,0L280,353.6l-6.6-24.36c.65,1.49,1.31,3,2,4.44,2.5,5.19,7.2,9.38,8.47,15.1a3.68,3.68,0,0,0,3.79,3.06l.25.72,2.86,1.91c.12-.58.47-1.23.31-1.71s-.45-1.18-.67-1.78a4.16,4.16,0,0,0,1.75-4.48c-1.27-5.71-5.12-10.16-8.1-15.08l-3.72-12.27-4.18-5.83c-.1.17-.19.34-.3.51a9,9,0,0,0-3.36-3.7l2.81-10.39a.51.51,0,0,0,.15-.23,48.16,48.16,0,0,1,3.68-3.82s0,0,0,0a31,31,0,0,1,7.48-3.35c11.27-3.32,21.29.89,24.91,2.64a210.48,210.48,0,0,1-3.23-43.4c0-1.41.09-3.92.43-8.92,1.32-19.73,1.93-39.54,6.5-58.94,4-16.77,13.81-29.11,27.72-38.69C349.16,140.79,355.14,136.27,361.22,131.87Z"/><path class="cls-3" d="M322.15,447.27A188.16,188.16,0,0,1,279,422.17c-11.47-8.91-26.38-20.49-38.35-40.34-24.2-40.17-18.27-84.2-13.51-100.38,3.17-10.75,8.57-23.52,8.57-23.52,3.93-9.3,7.73-16.73,10.44-21.72-10-13.92-23.89-38.21-25.59-69.89-.5-9.36-1.05-21.94,4.27-36.85,11.27-31.65,39-46,44.61-48.69,26.93-13.17,52.77-8.55,72.19-5.07A85.94,85.94,0,0,1,385.37,97c4,3.58,6.6,8.71,9.89,13.09,1.68,2.23,3.47,4.37,5.2,6.55,4.8-1.23,9.54-2.82,14.4-3.6,9.15-1.46,18.37-2.45,27.56-3.63A138.72,138.72,0,0,0,426,83c-2.79-3.53-60.61-74.14-138.77-56.07-55.79,12.91-81.54,61.64-84.62,67.72-22.14,43.62-11.67,86-7.79,101.7a163.73,163.73,0,0,0,18.32,44.47,118.39,118.39,0,0,0-10.6,117.76,123.1,123.1,0,0,1-81.26,29.32,368,368,0,0,0,2.55,37.27c1,8.32,2.23,16.22,3.61,23.69A276,276,0,0,0,179,403.38a275.31,275.31,0,0,0,27.47-37c1.63,3,3.14,5.41,4.32,7.23a197.64,197.64,0,0,1-18.84,30.76c-39.23,52.49-95.32,72.34-124.53,80.07-2.89,2.06-4.44,5.37-3.85,8.35.83,4.15,5.79,7.39,11.23,6.09,13.88-4.86,76.35-26.36,123.93-29.48a144.51,144.51,0,0,1,34.36,1.43,137.73,137.73,0,0,1,46.06,16.66l-.18,4.3c-4.11-2-7.51-3.43-9.66-4.31,0,0-26.48-10.63-62.1-10.43-27.92.16-76.13,9.67-132.09,35.31a9.35,9.35,0,1,0,8.35,16.68c73-32.41,134.06-35.32,153.94-29.83A147.43,147.43,0,0,1,285,522.45h0c3.47,2.73,6.22,5.18,8.11,6.95A73.18,73.18,0,0,1,328.32,509q-2.22-21.87-4.45-43.74Q323,456.29,322.15,447.27Zm-85.42-24.88c-2.82,12.35-4.56,21.54-4.92,23.54-1.05,5.93-1.81,11-2.34,14.79l-7.42-.87c.89-4.55,2.25-11.34,4.08-19.63,1-4.42.91-3.89,2.1-9.24,2.19-9.79,2.84-13.28,5.55-25.84.47-2.19,1.24-5.71,2.21-10.1l5.65,8.23C239.88,410.07,238.14,416.2,236.73,422.39Zm23.09,3.78c-1.5,8.51-3.09,13.75-4.41,19.12a169.22,169.22,0,0,0-3.7,20.33l-7.16-2c.22-.92.47-1.84.66-2.76,1.15-5.79,2.33-11.57,3.43-17.37,1.56-8.3,3.16-16.59,4.52-24.93a18.86,18.86,0,0,0,.18-3.7h.26v-.78h-.28c0-1.07-.1-2.16-.1-3.29l7.81,7.5C260.79,420.14,260.41,422.87,259.82,426.17Zm31.37,43.62c-.89,2.7-1.84,5.26-2.83,7.68l-3.89-1.76q1.83-8.61,3.62-17.33,1.57-7.65,3.1-15.24l5,4.14A116,116,0,0,1,291.19,469.79Zm17.47,6.66c-.39,5.84-.59,11.44-.65,16.79a13.24,13.24,0,0,1-6.08-5.29,196.05,196.05,0,0,1,3.7-24.94c.75-3.5,1.58-6.86,2.45-10.09l2.86,1.69C310,461.42,309.18,468.71,308.66,476.45Z"/><path class="cls-3" d="M831.37,417.1q-65,14.72-130.92,31-11.4,2.82-22.77,5.68c-.72-2.55-1.43-5.11-2.15-7.66q10.41-2.34,21-4.91c37.37-9.12,72.71-19.69,106-31.22q0-5.06,0-10.11c-72.65,22.35-98.08,30.63-104.31,33.08-.85.33-6.89,2.75-15.2,5.67-3.32,1.17-6.08,2.1-8,2.73-.2-1.21-.41-2.42-.61-3.63,1.43-1,3.68-2.57,6.52-4.32a131,131,0,0,1,36.26-15.24c16.82-4.6,47.11-14,87.11-26.15-27.51-6.21-99.13-26.5-142.47-91.84a193.08,193.08,0,0,1-20.41-40.42A98.83,98.83,0,0,1,611.82,247q-1.22,9.7-2.44,19.39c.84,3.31,2.15,7.94,4.1,13.35,3.9,10.82,9.54,22.43,20.65,38.35,9.35,13.39,26.38,37.3,56.46,61.31A278.27,278.27,0,0,0,730.78,406l-8.5,3.69a328.41,328.41,0,0,1-61.41-45c-5-4.62-8.44-8.16-9.57-9.31-9.71-9.94-26.49-29.08-44.75-61.12-9,23.37-7.85,48.4-11.85,72.59.13,4.8,4.79,4.34,7.41,6.11,4.3,2.9,9.29,4.81,13.55,7.76,4.64,3.21,13.3,8.18,22,16.55a87.53,87.53,0,0,1,16,19.91,84.16,84.16,0,0,1,9.82,28c4.43,23.67-.64,42.79-3,51.19A125.33,125.33,0,0,1,644.89,531c1.93.76,3.93,1.37,5.77,2.3,9.17,4.69,19.33,7.42,27,15s15,12.21,17.59,14.59c14.05,13,26.34,24.84,34.15,32.44a264.45,264.45,0,0,0,35.69-57c-22.63-3.62-46.34-8.23-70.94-14.06q-15.49-3.68-30.21-7.68l5.48-8.56,14.38,3.2q74.63,16.61,148.83,32.23c8.94,2.9,17.78-2.7,19.25-9.94,1.51-7.43-4.8-16.23-14.43-16.69L672.8,496.77l1.68-7.51c2.37.24,5.77.62,9.86,1.2,7.54,1.09,13.46,2.29,16.23,2.88l1.47.32c5.33,1.17,41.27,4.82,130,12.63,30.09,1.47,53.07-24,50.7-49.09C880.57,434.58,858.17,415.06,831.37,417.1ZM615,354.74a54.68,54.68,0,0,1-6.63,10.16l-4.74-3.55c2.1-5.32,4.16-11,6.14-17,2.21-6.72,4.08-13.18,5.67-19.32l5.34,7.79A55.48,55.48,0,0,1,615,354.74Zm20.22,8.51a90.92,90.92,0,0,1-6.12,14.55L621.37,373a107.79,107.79,0,0,0,8.39-20.27c.61-2,1.13-4,1.59-6a20.81,20.81,0,0,1,1.75,1.41,22.76,22.76,0,0,1,4.58,5.6A90.91,90.91,0,0,1,635.18,363.25Zm21.13,24.45c-2,3-4,5.59-5.94,7.92l-3.75-5.09a104.12,104.12,0,0,0,7.13-9.47c1.68-2.51,3.14-4.94,4.43-7.26l3.6,4.83A100.28,100.28,0,0,1,656.31,387.7Zm12.82,37.74a16.34,16.34,0,0,0-1.17-4.9,15.76,15.76,0,0,0-1.87-3.34q3.45-3.26,7-7a167.84,167.84,0,0,0,12.31-14.77l8.28,6.29c-2.38,2.89-5,5.87-7.92,8.89A151.32,151.32,0,0,1,669.13,425.44Z"/><path class="cls-3" d="M592.61,124.66a239.8,239.8,0,0,0-13.1,26.45,48.25,48.25,0,0,1,6.22,6.74,47.71,47.71,0,0,1,6.53,11.71,161.64,161.64,0,0,1,114.94-108c10.39-3.14,16.15-13.69,13.8-22.78-2.63-10.17-15-16.76-26.31-12.2C664.05,43.64,621.83,73.8,592.61,124.66Z"/><path class="cls-3" d="M521.42,118.25l10.74,8.51,17.92,7.09a262.76,262.76,0,0,1,14.75-35.57,265.45,265.45,0,0,1,45.22-63.93c3.56-7.76,3.31-16.35-1-21.21-6.27-7-21.85-7.1-32.09,4.81a378.48,378.48,0,0,0-42.67,69.68C529.27,98.2,525,108.45,521.42,118.25Z"/><path class="cls-3" d="M154.44,531.4q5.94,11.36,13.18,23.52c5.41,9,10.86,17.41,16.23,25.16,18.69-7.14,32.91-12,42.7-15.09,4.64-1.49,14.66-4.7,28.38-9.51,6.12-2.15,11.08-4,14.25-5.19a103.08,103.08,0,0,0-37.27-22.71C195.6,515.1,163.59,527.48,154.44,531.4Z"/><path class="cls-3" d="M559,137.89l11,6.34c1-2.82,2.56-7,4.82-12,4.16-9.15,10.5-20.73,27.86-41.8a464.74,464.74,0,0,1,34.19-37.17,10,10,0,0,0-16.36-11.56A526.68,526.68,0,0,0,584.4,92.52C574.47,108.38,566.1,123.64,559,137.89Z"/><path class="cls-3" d="M496.24,84.85a184.71,184.71,0,0,1,16.6-37.8,122.08,122.08,0,0,0-32.33-3.11,200.92,200.92,0,0,0-16,63.59l25.84,2.34A184.15,184.15,0,0,1,496.24,84.85Z"/><path class="cls-3" d="M147,513.44q2.22,5.1,4.42,10.2c36.39-8.68,64.65-9.32,75.44-7.38a118,118,0,0,1,19.82,5.5,96.71,96.71,0,0,1,8.88,4,99,99,0,0,1,24.34,17.56l6.5-6.9a133.07,133.07,0,0,0-139.4-23Z"/><path class="cls-3" d="M500.26,112,511,116.39q6.24-15.69,12.58-31.45,6.84-17,13.72-33.94l-14.12-2.89a307.3,307.3,0,0,0-18.74,48.12Q502.08,104.29,500.26,112Z"/><path class="cls-3" d="M311.73,101.6c25.84-2.18,45.75,13.6,46.65,14.33a61.24,61.24,0,0,1,10.85,11.5l18.33-7.11c-5.21-6.74-24.39-29.86-57.31-35.49-35.84-6.13-71.06,11.35-85.77,32.82a87.79,87.79,0,0,0-8.73,17c-5.75,15.75-4.83,29.19-4.22,37,2.53,32.09,21.22,57.85,27.61,66.1A115,115,0,0,0,236,283.32a117.34,117.34,0,0,0-2.5,41.86,128.33,128.33,0,0,0,24.91,60.23,132.86,132.86,0,0,0,60,44.22l-.69-14.08a103.14,103.14,0,0,1-28-15.39c-23.06-17.87-31.79-40.59-35.31-50.13-2.26-6.11-15.28-42.84-2.75-72.18a139.64,139.64,0,0,1,6.88-13.52,151.4,151.4,0,0,1,20.87-28.21c-26.47-22.58-36.66-57.6-25.85-87.18C262,125.85,284,103.94,311.73,101.6Z"/><path class="cls-3" d="M587.24,496.08c10.39-1.66,18.65,2.27,25.57,9.71l.47.19a117.64,117.64,0,0,0,5.07-15.33c2.63-10.28,5.74-22.44,3-36.58-2.68-13.87-9.73-23.13-15.22-30.33a96.28,96.28,0,0,0-22.61-21.36c-.86,1.67-2.17,4.34-3.61,7.68-4.35,10.13-5,15.38-8.1,23.75-1.71,4.64-1.18,2.26-8.07,17-3.91,8.38-7.63,16.86-11.67,25.18-2.18,4.49-4.84,8.74-7.19,12.93,4.28,2.61,8.34,4.81,12.1,7.43,7.74,5.39,15.59,2.36,23.46.69l-.88-.14,0-.82Z"/><path class="cls-3" d="M634.46,526.49A12.86,12.86,0,0,1,635,525c2.72-5.26,5.61-10.45,8.27-15.73,0,0,.85-1.62,2.63-5.42,3.24-6.92,7.87-22.22,7.25-41.11-.29-8.75-.73-21.93-7.82-36.66-11.08-23-31.17-34.77-41.55-40.85a120.89,120.89,0,0,0-11.91-6.13l-5.16,15.32a87.47,87.47,0,0,1,24.47,18.33,86.43,86.43,0,0,1,19.84,34.65s9.32,32.92-9.47,66.3l0,.06a2.07,2.07,0,0,1-.24.17h0l-.39,1C623.05,521.51,629.49,523.14,634.46,526.49Z"/><polygon class="cls-3" points="621.24 513.82 621.3 513.89 621.31 513.88 621.24 513.82"/><path class="cls-3" d="M190.62,354.67A112.25,112.25,0,0,1,198.72,237a157.45,157.45,0,0,1-23.34-61.93c-.17-1.15-.32-2.28-.46-3.41l0,.22c-52.86-8.74-98.8,19.7-108.75,57.93-6.41,24.59.21,60.38,28.09,78.84,29.44,19.49,62.78,6.71,66.18,5.34l1.44,10.2c-31.86,10.91-66.33,2.71-87.83-20.64C52.71,280.4,49.82,248.4,56.74,225.38c12.33-41,60.79-70.21,117.24-63.73l0,.23c-.19-3-.28-5.9-.3-8.71v.24c-53.37-15.81-108,10.39-126.81,56.18-16.1,39.27-5.05,91.12,32.73,116.59,38.64,26.05,83.17,9.61,87.91,7.77q2.88,7.13,5.78,14.25c-7.77,3.14-48.28,18.67-88.56-1.3C38.48,324,16.8,266.19,30.19,218.66c15.72-55.76,78.56-93.26,143.92-78v0a157.23,157.23,0,0,1,2.66-19.56c-58.26-15.55-119.21,7.67-150.59,56.42S-6.51,299.74,41.1,343.18C80.18,378.83,141.24,384.15,190.62,354.67Z"/><path class="cls-3" d="M801.8,348.17q.87,16.41,1.75,32.83a259.11,259.11,0,0,1-79.27-36.82s-33.89-23.49-59-62.9c-8.7-13.66-8.2-18.07-7-19.13s3.54,1.09,8.91.52c4.23-.44,5.72-2.08,7.52-1,1.2.7.56,1.47,2.65,7a70.68,70.68,0,0,0,4,8.69h0c5.74,10.53,16.21,21.08,16.21,21.08,21,21.14,40.17,31.56,40.17,31.56A153.78,153.78,0,0,0,801.8,348.17Z"/></g><g id="Calque_9" data-name="Calque 9"><path class="cls-1" d="M434.44,723.9c-33.91-2.7-105.49-13.39-175.89-64.38a344.79,344.79,0,0,1-84.39-87.87c18.26-7.81,33.39-13.56,43.87-17.38,23.44-8.55,26.87-8.62,38.07-14.53,10.29-5.43,13.38-8.52,35.76-22.69,9.22-5.83,16.83-10.46,21.77-13.42.13-13.32-.16-27.45-1-42.31-1.09-18.75-3-36.28-5.29-52.47a93,93,0,0,1-13.83-9.36,98.26,98.26,0,0,1-24.61-30.92c-5.78-11.32-21.51-42.16-7.93-66.91,1.62-3,11.44-20,28.27-22.17a28.88,28.88,0,0,1,7.72.06c-3.31-22.37-5.48-59.91,10.18-100.94,3.29-8.64,6.93-18.27,13.42-27.87,35.14-52,124.65-65.19,192.82-44.88,21.39,6.38,64.25,19.14,90.91,60.34C630,206,626.25,250,625,264.44a176.7,176.7,0,0,1-13.63,54.3,381.21,381.21,0,0,1-52.68,167.8,27.54,27.54,0,0,0,8.14,3.46c10.45,2.52,15.21-3.19,27.66-2.85A33.66,33.66,0,0,1,612.2,492a32,32,0,0,1,12,14.44A344.77,344.77,0,0,1,657.15,524c33.54,20.22,54.72,40.56,60.82,46.58,7.37,7.28,13.06,13.67,16.82,18.06A337.37,337.37,0,0,1,615.86,689.32C598,698.36,528.6,731.39,434.44,723.9Z"/></g><g id="Calque_10" data-name="Calque 10"><path class="cls-4" d="M707.4,579.89c-48-34.38-72.31-51-74.67-52.33-5.18-2.95-14.5-6.06-17.73-11.41-1.65-2.72-1.65-6.15-3.39-8.9a14.22,14.22,0,0,0-7.38-5.55c-12-4.26-26.9-1.3-38.79,3.25a85.49,85.49,0,0,1-8.77-4.86c-5.78-3.53-11.73-6.93-18.29-8.63,10.52-13.2,20.1-26.9,22.78-43.91,0-.11.06-.21.08-.32h0c.07-.44.15-.87.21-1.32a4,4,0,0,0-2.12-4.15l.36-.64a4.76,4.76,0,0,0,4.7-3.53q1.68-5.19,3.34-10.39c6.67-11.81,12.57-24.07,13.57-37.61q1.2-2.54,2.44-5.05c7.39-14.93,14.91-31.66,9-48.41a5.19,5.19,0,0,0-1.79-2.5c2.1-6.88,4.83-13.62,7.52-20.3,7.19-17.78,11.68-34,13.87-49.64,6.82-48.55-18.84-87.41-21.27-91a98.73,98.73,0,0,0-16.27-19.12c-20.28-18.23-43.15-22.74-70-27.68-10.76-2-25.24-5.7-54.34-4.79-18.37.57-36.84.65-55.19,1.81-8.28.52-16.6,2-23.36,7.18-6.44,4.87-10.56,11.88-13.7,19.18-7,16.35-12.6,33.48-18.49,50.33-3.51-.18-7.2,3.49-4.84,7.42,11.17,18.72-2.87,40.47-7.2,59.06-2.46,10.55-2.8,21.23-2.17,31.91-1.31-.27-3.28-.67-5.67-1.13-14.72-2.83-22.09-4.24-26-3.76-7.83,1-17.49,6.18-21,14.45a11.57,11.57,0,0,0-.8,2.55c-1.87,10.06,2.36,19.11,5.29,25.23,5.07,10.55,8.23,21.91,12.62,32.75,7.34,18.12,9.31,22.74,14.78,27.53a39.49,39.49,0,0,0,14.7,8q3,30.31,6,60.65,1.61,16.8,3.17,33.6c.37,4,1.61,9.3-.67,12.91-1.86,2.93-5.61,4.33-8.71,5.51-7.41,2.85-14.13,5.54-19.82,11.33s-9.6,12.78-14.86,18.8c-8.84,10.09-36.66,15.51-47.84,17.69a215.29,215.29,0,0,0-53.28,18.11A351,351,0,0,0,306.11,686.59a346.86,346.86,0,0,0,142.3,37.71c78.12,3.28,136.12-21.21,156.45-30.67a334.45,334.45,0,0,0,123.36-98.82Z"/></g><g id="Calque_7" data-name="Calque 7"><polygon class="cls-3" points="455.32 541.39 455.31 541.39 455.31 541.39 455.32 541.39"/><path class="cls-3" d="M347.47,401.73v0h0Z"/><path class="cls-3" d="M382.44,508.71c.38.17.89,0,1.33.05,1.24.12,2.48.27,3.71.41a10.22,10.22,0,0,1,3.41-5.33c.66-.51,1.88-1.3,8.08-2,8.09-.92,10.3-.06,11.33.42.31.15,2.59,0,3.19,2.2,2.47,9.09,5.38,18,11.3,25.52.12.16.08.45.11.68,4.89,1.1,9.73,2.84,14.67,3.15,5.28.34,10.24.23,13,5.81a10.55,10.55,0,0,0,1.24,1.62l1.53.15,1.53-.89.74-.68.75-.69a36.3,36.3,0,0,0,10.4-11.32c2.24-3.87,4.92-8.5,3.69-13.83a12.72,12.72,0,0,0-3.55-6.46c-3-3.13-7.22-5.09-11-7.46a2.77,2.77,0,0,0-2.2.17c-5.29,2.44-6.46,9.95-2.8,14.23,1.46,1.72,2.55,5,2,7-1.58,5.35-13.12,8.63-16.83,3.27a39.23,39.23,0,0,1-7.25-16.5c-1.68-8.78-.77-15.57-5.84-20a14.09,14.09,0,0,0-1.87-1.36c-4.9-3-9.73-1.92-14.77-1.63a58.74,58.74,0,0,1-25.54-5.18,18.53,18.53,0,0,1-4.57-2.6c-3.71-3.22-3.72-6.92-5.85-23.27-1.16-8.92-1.76-12.48-2.08-19.28-.15-3.35-.16-5.94-.16-7.08a133.09,133.09,0,0,1,4.56-35.68c.05-.17.1-.32.14-.48q.4-1.31.78-2.61a4,4,0,0,0,1.33-3.07,8,8,0,0,1,.3-2,11.11,11.11,0,0,0-.25-4.14c-.45-2.45-.12-4.54-2-6.5a4.05,4.05,0,0,0-6.21.37c-.06-.5-.13-1-.22-1.49-1.07-5.41-9.35-3.12-8.29,2.29a24.25,24.25,0,0,1-.1,7.78c-.1-.79-.19-1.56-.28-2.36a255.67,255.67,0,0,1-1.15-37.6c1.16-4.87,2.45-8.79,4-11a176.77,176.77,0,0,1,14.76-17.62c2.23-2.4,5.38-3.95,8.11-5.88l3.28-1.89a14.67,14.67,0,0,1,2.49-3c5.28-3.66,10.65-7.19,16-10.76v-4.94l-14.59,4c.15.59.15.76.22.8,1.39.77,2.8,1.52,4.2,2.28a21.75,21.75,0,0,1-4.59,1.54c-3.79.38-7.6.46-11.41.58a7.11,7.11,0,0,1-2.08-.6,10.36,10.36,0,0,1,.71-2.25c2.25-3.83,5.18-9.57,21.42-17.93a160.47,160.47,0,0,1,16.56-7.36,62.38,62.38,0,0,1-3.43-33.46l-5.84,1.7,0-.14A4.4,4.4,0,0,0,408,235c.34-.57.68-1.14,1-1.71a3.35,3.35,0,0,0,3.23-1.43c.78-1,1.72-2,2.52-3a3.33,3.33,0,0,0,.34-.47,7.44,7.44,0,0,0,1.33-2.94c.06.14.12.29.17.44.78-2.5,1.55-5,2.33-7.48a1.08,1.08,0,0,0,0-.19l.36.09c0-.25,0-.5,0-.76a11,11,0,0,0,.69-1.73c.63-2.15.23-4.44.58-6.63a27.91,27.91,0,0,0,.52-4.13,6.52,6.52,0,0,1,1.47,1.65,10.19,10.19,0,0,1,.62,3.14,43.85,43.85,0,0,0,1.52-6.65c1-6.49,2.37-16.12-3.42-21.81-5-4.88-12.46-4-13.34-3.95-6.8.74-11.84,6.73-13.6,8.81-7.1,8.38-8.11,19.38-8.32,22.61a34.63,34.63,0,0,1-6.64,15.56h0a17.9,17.9,0,0,0-3.29,1.89,18.46,18.46,0,0,0-2.38,2c-4.25,3-8.47,6-12.41,9.34-4.62,3.92-9.86,9.73-7.14,16-1.11,8.43-2.52,15.12-3.56,19.56-1.46,6.23-2.53,11.8-4.73,18.87-2,6.54-3.61,10.14-4.64,12.95-10.9,29.76,4.62,65.33,5.27,66.76.87,1.92,1.76,3.83,1.76,3.83,1.15,2.47,1.56,3.31,2.29,4.88,2.09,4.52,3.13,6.8,2.85,7.52-.68,1.75-2.32,4-6.05,5a2,2,0,0,0-1.05,1.67c.28,2.37.78,4.71,1.2,7.06l1-.18h.42l-.17.28c2.27,3.06,1.53,4.06-4.7,6.43l3.06,5.26-3.58,1.5c0,4.81.13,9.34,0,13.85-.14,4-.76,8-.9,12-.15,4.18-.84,8.62.26,12.51,1.49,5.25,2.94,10.31,2.72,15.83,0,1.24,1.28,3.48,2.24,3.64,3.12.51,3.74,2.51,4.56,5a14,14,0,0,0,3.29,4.82,23.14,23.14,0,0,0,3.84,2.75l3.14-1.46c0,1.1-.06,2.2-.06,3.3,0,1.64-.63,3.69.12,4.86,2,3,4.52,5.68,7.44,9.2a11.83,11.83,0,0,1-.39-2.57c.2-1.19.53-2.36.81-3.54,1,.93,2.49,1.67,3,2.81C375.3,502.58,377.73,506.57,382.44,508.71Zm2.05-201.14.05.26a.43.43,0,0,1-.17,0s0-.1,0-.15ZM399,230l.24,2.58c-.84,1.21-1,1.28-2.78,1.32a6.31,6.31,0,0,0-1,.13c-.14-1.94-.29-3.88-.43-5.83a5.56,5.56,0,0,0,2.33,1.47A7.84,7.84,0,0,0,399,230Zm-5.83-28.59,1.17-.79a25.91,25.91,0,0,1,1.85,2.19,4.48,4.48,0,0,0-3,.86C393.18,202.93,393.21,202.17,393.21,201.42Zm-19,46.52a5.8,5.8,0,0,1-3.53,3,16.89,16.89,0,0,1-4.19.45C369.08,250.3,371.64,249.13,374.18,247.94Z"/><path class="cls-3" d="M411.63,131.13A60.86,60.86,0,0,0,387.73,143q-7.2,14.16-15.55,29-5.13,9.08-10.31,17.64l.3.15-2.94,4.08c-2,2.76-3.82,4.76-3.1,8.31a4.33,4.33,0,0,0,5.28,3c4.17-1.36,6.66-4.18,9.62-7.23s7.34-4.6,10.5-7.75a4.12,4.12,0,0,0,1.15-2l.15-.08c.35-.89.91-2.21,1.7-3.76,2.11-4.13,7.77-15.2,18.69-18.43a24.86,24.86,0,0,1,13.92.22c11,3.07,21.51,13.39,22.15,26.23a27.82,27.82,0,0,1-4.43,16q-3.9,8.4-7.78,16.8c1.75.13,3.26.19,4.65.2l.08.4.65-.39a32.9,32.9,0,0,0,4.17-.23,5.1,5.1,0,0,0,2.68,2.85,8.68,8.68,0,0,0,3.46.92,64.71,64.71,0,0,0-14.73,2.5,61.26,61.26,0,0,0,5.54,34.07c3.06.36,6.13.62,9.17,1.11,4.1.67,8.42.91,12.2,2.43,8.35,3.36,16.42,7.4,24.61,11.17A32,32,0,0,0,494.7,274a28.28,28.28,0,0,0,10.16-13.53c2.43-7.25,1.95-16.61-3.12-22.6-2.08-2.45-6.23-5.86-8.44-4.75a3.48,3.48,0,0,0-1.43,2.42c-1.17,4.61-4,13.71-8.92,14.66-7,1.35-13.31,0-17.35-6.24-2.8-4.35-4.73-9.25-7.05-13.9q-1.46-.28-3.12-.54a12.14,12.14,0,0,0,1-1.41c.66-1,1.07-2.29,1.8-3.3.94-1.29,2.35-2.14,3.24-3.49a7.81,7.81,0,0,0,1.13-2.59c.05.79.06,1.58.12,2.36,3.76-5.85,6.64-10.93,8.71-14.76,6.62-12.28,7.5-17,8-18.82a31.12,31.12,0,0,0,.31-13.79A34.94,34.94,0,0,0,474.86,162a147.75,147.75,0,0,0-11.45-16.19c-3.6-4.4-7.93-8.2-11.93-12.26l-2.88-.79-10.7-2.27A61,61,0,0,0,411.63,131.13Zm33,97.69s0,.05,0,.07h-.54Zm-2.12-17.62c0-.42.43-.84.77-1.25a3,3,0,0,0,.08.41,4.66,4.66,0,0,1-.81,4.34C442.53,213.63,442.5,212.46,442.54,211.2Z"/><path class="cls-3" d="M386,319.89c-1.75,1.49-6.91,6.51-16.57,27-1.66,3.52-2.95,6.43-3.76,8.3a85.47,85.47,0,0,0,9.43,13.19c1.76,2,3.53,3.85,5.24,5.5,4.77-12.4,11.1-19.64,16.18-24,5.3-4.56,11.12-8.26,25.4-19,1.61-1.21,3.14-2.53,4.65-3.76L423.82,325l0,0-1-.84a31.74,31.74,0,0,1-14.66-12.42c-.46-.74-2.65-.43-4.05-.56-.65-.07-1.32,0-3.37,0,3.14-2,5-3.56,7.18-4.53,8.94-4,17.56-8.93,27.53-10.15,7.94-1,15.28,1.07,21,6.4,5,4.63,8.94,10.37,13.25,15.71a2.59,2.59,0,0,1,.16,2.43,20.56,20.56,0,0,1-4.5,2.77c-2,.94-4.16,1.59-6.2,2.47a31.07,31.07,0,0,0-3.12,1.79l.79,1a11,11,0,0,1,2.8-.06,18.11,18.11,0,0,0,15.67-3.14,2.76,2.76,0,0,0,1.07-1.95c-.29-4.15-.74-8.29-1.14-12.43-4.66-3.39-9.31-6.81-14-10.16-2.47-1.76-5-3.4-8.24-5.57h2.64c-1.44-.68-2.81-1.73-4.32-2-8.6-1.53-16.88.56-25.13,2.54-4.62,1.1-9.26,2.2-13.73,3.73-2.23.77-4.2,2.4-6.12,3.86-2.73,2.07-5.31,4.34-7,5.71l10.76,13.68-14.75-10C392.28,315.54,388.87,317.42,386,319.89Z"/><path class="cls-3" d="M322.84,401.38a6.64,6.64,0,0,0,3.83-1.67,12.48,12.48,0,0,0,1.68-2.26c3-.63,6-2,6.88-4.41,1.58-4.24-1.63-8.5-4.32-11.57-.09-3.34-1.76-5.08-4.8-5.69l-.57-.69c-1.82-2.15-4.23-3.6-6-5.74s-4.39-1.61-5.89.08c-6.33-8-12.61-16.29-6.3-27.81a14.56,14.56,0,0,0-10.95-5c.72,9.27,1,18.61,2.37,27.78.69,4.59,2.92,9.18,5.37,13.21,2.69,4.43,5.8,8.73,11.21,10.26a41.77,41.77,0,0,0,2,5.28c-6.93-.5-12.08-5.06-17-10.27,1.2,2.6,2.73,4.94,3.81,7.47A17.69,17.69,0,0,0,322.84,401.38Z"/><path class="cls-3" d="M210.44,604.19c-1.26,2.31-2.49,4.64-3.63,7,2.12,2.3,4.57,4.88,7.34,7.7-.07-6.19.32-12.41.41-18.62C213.16,601.57,211.31,602.61,210.44,604.19Z"/><path class="cls-3" d="M592.86,593.4a22.54,22.54,0,0,0-9.69-15.34c-2.92-2-6.9-2.41-10.4-3.54-2.33,8.57-4.64,17.14-7,25.69-.5,1.82-1.21,3.58-1.83,5.36,0,6.59.21,13.19-.16,19.75-.55,9.8-1.73,19.57-2.23,29.37-.47,9.32,1,8.49.57,15.29-.56,10.13-2.67,13.62-3.29,23.37a78.07,78.07,0,0,0,.7,16.19l15.9-3.91c0-4.16.13-10.79.42-19,.78-22.35,1.25-34.31,4.33-49.55,2.1-10.43,3.15-15.64,5.59-22C590.09,603.76,593.78,600.5,592.86,593.4Z"/><path class="cls-3" d="M648.35,668.45l10.35-6.38c-.06-.2-.14-.43-.21-.64a31.59,31.59,0,0,0-3.36-7.32,32.42,32.42,0,0,0-5.33-6.48,112.2,112.2,0,0,0-26.47,21.66c-3.3,3.71-5.68,7-13.13,15.66-3.18,3.71-6.06,7-8.55,9.79-1.94,2.18-3.65,4.07-5,5.59L627,681.61Z"/><path class="cls-3" d="M302.47,605a26.52,26.52,0,0,0-.77,4.37c-.06,6.45.33,12.92,0,19.34-.88,15.67-2.13,31.31-3.14,47q-.22,3.61-.47,7.23c4.2,2.35,8.5,4.67,12.94,6.92q.75-12.42,1.6-24.84A98,98,0,0,1,314,654.31c1.61-8.88,3.36-17.73,5-26.58.1-.46.21-.91.32-1.37l.48-2.39c-1.89-3-3.38-6.27-5.76-8.75C310.57,611.49,306.38,608.35,302.47,605Zm8.85,62.52-.3-3.1.54-.08.63,3Z"/><path class="cls-3" d="M442.27,586.53c7.89,1.59,14.79,2.54,20.29,3.12a93.28,93.28,0,0,0,9.56-10.42c.59-.76,1.17-1.51,1.72-2.26a60.57,60.57,0,0,0-7.8-.69c-13,.4-26.06-.13-37.71-6.13-13.57-7-26.44-15.3-39.56-23.11-4.72-2.81-9.31-5.83-13.95-8.76q3.92,12.83,7.86,25.67c10.68,8.26,23.4,11.87,35.86,16.37A199.18,199.18,0,0,0,442.27,586.53Zm21.47-.8v.14l-.13-.08Z"/><path class="cls-3" d="M275.3,669q2.16,1.43,4.38,2.85l-4.14-5Z"/><path class="cls-3" d="M354.69,497.55c-.71-.69-1.4-1.41-2.1-2.11l4-1.85c-5.09-2.55-9.41-5.12-14-6.94-6.25-2.45-10.28-5.21-9.41-13.38a10.88,10.88,0,0,0-.44-3.79c-.77-3-2-5.83-2.46-8.82-.42-2.67.94-6.1-.28-8.08-4.3-6.89-1.61-12.44,1.8-18.41.89-1.54.72-5.41-.28-6-6-3.54-5.05-9.19-5-14.48,0-2.79,1.08-5.57,1.67-8.36l-1.29-.51c-.84,1.4-2.3,2.77-2.4,4.22a195.88,195.88,0,0,0-.73,21.24c.32,8,2.33,16,2.1,23.92-.26,9.32.74,18.41,1.86,27.56,1.05,8.62,1.67,17.32,3.24,25.84a273.85,273.85,0,0,0,7.19,31.07c3.07,10,7.5,19.52,11.33,29.26a1.32,1.32,0,0,0,.3-.1s0-.12,0-.18c-1.53-5.45-2.63-11.06-4.67-16.31-4.4-11.31-5.95-23.17-7.48-35-.52-4-.33-8.18-.59-12.27a3.92,3.92,0,0,1,.69-2.81c1.87-2.26,6.89-.91,8.2-.57,1.57.42,2.43.91,6.26,2.86a74.21,74.21,0,0,1,6.93,3.57c4.41,2.85,8.68,5.92,13,8.89C366.82,509.33,360.75,503.44,354.69,497.55Z"/><path class="cls-3" d="M616.66,644.71l-10.15-20.25c-1.44,2-3.19,3.86-4.27,6-3.93,8-8.62,15.86-11.16,24.32-2.38,7.94-2.66,16.56-3.36,24.93-.48,5.69-.09,11.45-.09,17.91a22.12,22.12,0,0,0,1.55-2.16c5.74-11.14,11.35-22.36,17.25-33.42C609.58,656.16,613.23,650.49,616.66,644.71Z"/><path class="cls-3" d="M460.5,723.72c2.35.18,3.48-.44,3.45-3.06a26.06,26.06,0,0,1,.95-6.16c1.12-4.73,1.72-9.73,3.76-14,1.91-4.06-1-9.53,3.95-12.49.33-.2.29-1.05.37-1.6.46-3,.52-6.09,1.44-8.92,2.17-6.65,4.75-13.16,7.17-19.72q3.45-16.69,6.89-33.4c-14.9,32.07-27.82,64.72-35,99.33C455.8,723.66,458.16,723.54,460.5,723.72Z"/><path class="cls-3" d="M417.66,542.57c-.24-.58-.21-1.33-.57-1.79-2-2.56-3.5-6.12-6.12-7.36a75.3,75.3,0,0,1-16.7-10.19c-4.57-3.85-9.6-7.15-14.43-10.69-.29.37-.58.73-.88,1.09,9.82,21.71,26.59,36.24,48.07,45.92-1.32-2.13-3.47-3.63-4.58-5.69A116.18,116.18,0,0,1,417.66,542.57Z"/><path class="cls-3" d="M224.57,597.87c-.13-.11-.65.18-1,.28-2.21,7.48-.91,14.88.61,22.24.73,3.52,1.52,7,2.31,10.46.91,3.95,1.82,7.81,2.66,11.49L232,635.8q3.47-8.07,6.94-16.16c-.87-3.44-.86-7.51-2.8-10.16C232.94,605.12,228.51,601.67,224.57,597.87Z"/><path class="cls-3" d="M318.44,314.35h0l-.15.38c.44.67.94,1.33,1.46,2a2,2,0,0,0-.11.32,26.8,26.8,0,0,0,.58,13.34,4.17,4.17,0,0,0,4.93,2.91c.79,5,1.51,10,2.48,15,.1.51.22,1,.33,1.54l-.26-.37a4.55,4.55,0,0,0-5.25-1.84,76.55,76.55,0,0,1-.29-11.33c-7.84,14.56-6.35,25.15,4.63,31.81-.09-1.57,0-3.06,0-4.41l.69,1.22c2.26,4.2,9.55,1.33,7.85-3.3l-1.47-4a5.74,5.74,0,0,0-.5-1,88.31,88.31,0,0,0-4.06-35.85c-2.56-7.84-6.21-14.8-14.12-18.55Q316.79,308.27,318.44,314.35Z"/><path class="cls-3" d="M481.56,701.35c-.8,7.43-1.52,14.87-2.27,22.3l8.6,0c-1.73-8.88-3.47-17.76-5.27-27A45.19,45.19,0,0,0,481.56,701.35Z"/><path class="cls-3" d="M347.47,401.73h0l.1.11Z"/><polygon class="cls-3" points="315.33 301.93 315.49 302.01 315.33 301.92 315.33 301.93"/><path class="cls-3" d="M560.26,514.49c-4,2.64-9.64,4.54-11.37,8.26-5.06,10.83-8.91,22.29-12.47,33.74-2,6.56-2.93,13.53-3.74,20.39-.92,7.94-1.18,16-1.73,23.94.72,1.84,2,3.67,2.06,5.52.1,7.18-.6,14.39-.25,21.55.4,8,1.64,16,2.45,24,.43,4.25.73,8.5,1.08,12.75.65-2.42.41-4.82.69-7.17,1.71-14.78,3-29.65,5.46-44.3,2.92-17.14,6.86-34.11,10.54-51.11,1.51-7,3.9-13.71,5.2-20.68,1.61-8.67,2.52-17.47,3.73-26.22C561.35,515,560.53,514.31,560.26,514.49Z"/><path class="cls-3" d="M537.11,685.78c-1.92-10.62-4-21.22-5.73-31.87-1-6.18-1.44-12.45-2.2-19.34-2,5.38-4.15,10-5.27,14.78-2.36,10.22-4.64,20.5-6,30.88-1.15,8.55-.89,17.3-1.43,25.95-.33,5.19-.88,10.38-1.37,15.57q11.73-1.95,22.83-4.63l0-18.76-.15-8.07C537.56,688.79,537.38,687.28,537.11,685.78Z"/><path class="cls-3" d="M456.54,393c6.57-7.7,15.22-11.71,24.56-14.69,1.39-.44,3.47-1.22,3.75-2.25,3-10.92,2.5-21.65-2.68-31.92a5.14,5.14,0,0,0-2.13-2.51c-6.78-2.41-13.63-4.64-20.46-6.92-1.8,1.44-4.3,3.52-7.15,6.2-10.42,9.81-22.91,21.56-26.17,39.52a49.48,49.48,0,0,0,2.05,26c3,8,7.76,13.91,10.85,17.74a83,83,0,0,0,9,9.55c10-.75,15.9-7.68,21.46-14.71-4.93-3.9-8.69-8.89-9.12-16.17a14.27,14.27,0,0,0-2.49,1.79c-2.92,3.4-5.73,6.89-8.65,10.29-.35.4-1.52.74-1.64.59a4,4,0,0,1-.92-2.16c0-.68.48-1.37.69-2.09C449.46,404.67,452,398.4,456.54,393Z"/><path class="cls-3" d="M507.34,347.87c-1.31-5.82-2.5-11.71-4.36-17.36-3.11-9.47-6.55-18.83-10.18-28.11-1.37-3.5-3.64-6.64-5.49-9.95v16.43l4.68,1.21c-1.2,1-2.48,2-3.57,3.13a6.3,6.3,0,0,0-.81,2.16,6.91,6.91,0,0,1,2.19-.2c1.32.42,2.59,1,3.87,1.53-.94.86-1.85,1.76-2.84,2.56s-1.9,1.34-2.84,2l6.16,1.14-4.6,5.15c0,.07.31,1.16.66,2.44a7.07,7.07,0,0,1,2.16-.63,24.56,24.56,0,0,1,3.48.59c-.86.93-1.6,2.51-2.59,2.67-3.2.54-2.47,2.18-1.81,3.68l7.84-1.8.72,1.79-6.26,4.37,1.2,4.42a21.1,21.1,0,0,1,4.24-1.21c.93-.07,1.92.63,2.88,1-.58.8-1,1.92-1.79,2.33a26.4,26.4,0,0,1-4.45,1.48c-.15,2.84.63,4.28,3.82,3a7.3,7.3,0,0,1,3.58-.2,8.79,8.79,0,0,1,2.43,1.18c-.75.83-1.43,2.28-2.26,2.37-3.11.35-4.2,1.63-2.88,4.86h7.76l.21,1.64-6.11,2.09c-.07.58-.15,1.26-.21,1.79a28,28,0,0,1,3.53,1.13,23.87,23.87,0,0,1,2.85,1.8c-1.12.6-2.2,1.64-3.35,1.71-4.34.28-8,1.38-9.73,6.06a31.23,31.23,0,0,1,4.71.83c.74.24,1.25,1.21,1.86,1.85a5.86,5.86,0,0,1-1.8,1.14c-2.24.45-4.54.6-6.76,1.12a9,9,0,0,0-2.49,1.66.42.42,0,0,1-.17.05l.32.3a39.64,39.64,0,0,1,5.2.06,22.81,22.81,0,0,1,4.16,1.32c-1.42,1.07-2.74,2.84-4.29,3.08-7.61,1.16-15.31,1.75-22.92,2.94a6,6,0,0,0-4.1,3.34,37.24,37.24,0,0,0-.91,9.46c-.07,8.2,0,8.21,6.53,10.26a3.37,3.37,0,0,0,1.09-.05,4,4,0,0,0-.35-.91c-2.72-4-2.33-7.23,1.34-8.08,2.71-.63,6-1.19,8.38-.25,3.3,1.28,6,4,9,6.11.85-.89,2.28-1.69,2.43-2.69.69-4.28,2.48-7.64,6.58-9.44,3.49-1.54,7.35-2.69,7.47-7.53.19-7.94.9-15.92.34-23.81C510.66,360.46,508.76,354.17,507.34,347.87Z"/><path class="cls-3" d="M493.85,425.75c-1-1.85-2.08-3.69-3.11-5.54a6.18,6.18,0,0,0-1.53.73c-3.91,3.36-7.65,6.92-11.7,10.09-2.69,2.1-6.45,3.1-8.62,5.57-5.19,5.87-10.58,11-18.85,11.77l3.55,4.26c3.21-.78,6.42-1.57,9.65-2.32,5.67-1.32,11.3-3.19,17.05-3.74a9.54,9.54,0,0,1,9.65,5l2.13-4.24c-3.51-2.52-4.76-5.66-2.95-9.84C490.79,433.6,492.28,429.66,493.85,425.75Z"/><path class="cls-3" d="M436.9,592c-13.79-2.08-23.4-4.09-45.33-11.93a13.07,13.07,0,0,0-2.36-.4,58.14,58.14,0,0,0,3.49,9.51c2.52,5.39,8.08,17.24,20.67,23.52,3.3,1.64,10.25,5,18.62,3.36a25.31,25.31,0,0,0,6.91-2.47c11-5.61,18.56-16.6,22-22.28A69.69,69.69,0,0,1,436.9,592Z"/><path class="cls-3" d="M451.08,306.11,462,314.47C460.85,310.36,455.42,306.18,451.08,306.11Z"/><path class="cls-3" d="M412.75,312.12c.5-.89,1-1.78,1.49-2.67l-6.32,1.11Z"/><path class="cls-3" d="M456.05,324.23l4.67-2.75C458.53,321.32,456.28,321.07,456.05,324.23Z"/><path class="cls-3" d="M417.71,261.1c0,.25-.07.49-.1.74.15,0,.42,0,.44,0a3.08,3.08,0,0,0,.05-.61Z"/><path class="cls-3" d="M171.65,153.17q.19-6.25.4-12.5C171.77,144.58,171.62,148.77,171.65,153.17Z"/><path class="cls-3" d="M171.94,161.88c.2,3.18.5,6.45.93,9.82Z"/></g><g id="Calque_8" data-name="Calque 8"><path class="cls-5" d="M407.64,292.92V288l-14.59,4c.15.59.15.76.22.8,1.39.77,2.79,1.52,4.2,2.28a21.75,21.75,0,0,1-4.59,1.54c-3.79.38-7.6.46-11.41.58a7.11,7.11,0,0,1-2.08-.6,10.27,10.27,0,0,1,.71-2.24c2-3.45,5-10.21,21.41-17.94,10.77-5.08,21.81-10.28,37-9.58a70.43,70.43,0,0,1,16.78,3A90.65,90.65,0,0,1,479.86,281a16,16,0,0,1,7.75,12.21v16.43l4.68,1.21a7.61,7.61,0,0,0-3.57,3.13,7.13,7.13,0,0,0-.81,2.16,9.24,9.24,0,0,1,6.06,1.33c-.94.86-1.85,1.76-2.84,2.56s-1.9,1.34-2.85,2l6.17,1.14-4.6,5.16c0,.06.31,1.15.66,2.43l5.64,0c-.86.93-1.6,2.51-2.59,2.67-3.2.54-2.47,2.18-1.81,3.68l7.83-1.8c.25.6.49,1.19.73,1.79l-6.26,4.37c.34,1.26.77,2.83,1.2,4.43a20.51,20.51,0,0,1,4.24-1.22c.93-.07,1.92.63,2.88,1-.58.8-1,1.92-1.79,2.33a26.4,26.4,0,0,1-4.45,1.48c-.15,2.85.63,4.28,3.82,3a7.3,7.3,0,0,1,3.58-.2,8.79,8.79,0,0,1,2.43,1.18c-.75.83-1.43,2.28-2.26,2.37-3.11.35-4.2,1.63-2.88,4.86h7.76l.21,1.64-6.11,2.09c-.07.58-.15,1.26-.21,1.79a28.51,28.51,0,0,1,3.53,1.13,23,23,0,0,1,2.84,1.8c-1.11.6-2.19,1.64-3.34,1.71-4.34.28-8,1.38-9.73,6.06a31.23,31.23,0,0,1,4.71.83c.74.24,1.25,1.21,1.86,1.85a6,6,0,0,1-1.8,1.14c-2.24.45-4.54.6-6.76,1.12a9,9,0,0,0-2.49,1.66.42.42,0,0,1-.17.05l.32.3a39.47,39.47,0,0,1,5.19.06,22.91,22.91,0,0,1,4.17,1.32c-1.42,1.07-2.74,2.84-4.29,3.08-7.61,1.16-15.31,1.75-22.92,2.94a6,6,0,0,0-4.1,3.34,37.24,37.24,0,0,0-.91,9.46c-.07,8.2,0,8.21,6.53,10.26a3.13,3.13,0,0,0,1.09-.05,5.53,5.53,0,0,0-.35-.91c-2.72-4-2.33-7.23,1.34-8.08,2.71-.63,6-1.19,8.38-.25,3.3,1.28,6,4,9,6.11.28,1.67.85,2.53,2.94,2.19,4.68-.75,9.46-.92,14.12-1.76,4.12-.74,9.21-6.49,9.54-10.7.51-6.48,1.4-13.05.85-19.48-1.26-15-2.91-29.91-5.19-44.75-.93-6.06-4.57-11.67-3.74-18.18.61-4.75,2.87-8.48,8-12.12-.93,3.18-1.19,5.34-2.16,7.11-2.62,4.72-.54,9.15.13,13.8,1.56,10.95,2.72,22,3.92,33s2.09,22.07,3.5,33.05c.34,2.64,2.11,5.13,3.4,7.6,2.74,5.2,1.34,10.38,0,15.53a2.92,2.92,0,0,1-2.57.41,26.51,26.51,0,0,1-3.23-3.33c-7.47,3.08-14.39,6.25-21.54,8.73-2.5.86-2.77,2.3-2.81,4.08-.13,4.74.1,9.5-.05,14.24-.13,4.48-2.87,7.18-7.31,7.61-3.51-2.52-4.76-5.66-2.95-9.84,1.67-3.86,3.16-7.81,4.73-11.72,1.63-2.64,1.27-4.9-1.36-6.72L491,421a6.56,6.56,0,0,0-1.53.73c-3.91,3.36-7.65,6.92-11.7,10.09-2.69,2.1-6.45,3.1-8.62,5.57-5.19,5.88-10.58,11-18.84,11.77l-15.66.72-11,.51a80.73,80.73,0,0,1,6.69-5.16c6-3.67,12.08-7.15,18.13-10.7,10-.75,15.9-7.68,21.46-14.71-4.93-3.9-8.69-8.89-9.12-16.17a14.27,14.27,0,0,0-2.49,1.79c-2.92,3.4-5.73,6.89-8.65,10.29-.35.41-1.52.74-1.64.59a4.15,4.15,0,0,1-.93-2.15c0-.69.49-1.38.7-2.09,1.93-6.62,4.43-12.89,9-18.26,6.57-7.7,15.21-11.71,24.56-14.69,1.39-.44,3.47-1.22,3.75-2.25,3-10.92,2.5-21.65-2.68-31.91-.49-1-1.23-2.19-2.14-2.51-6.77-2.42-13.62-4.64-20.45-6.93l-9.08-2.56,6.41-3a11,11,0,0,1,2.8-.06,18.11,18.11,0,0,0,15.67-3.14,2.76,2.76,0,0,0,1.07-1.95c-.29-4.15-.74-8.29-1.14-12.42a15.5,15.5,0,0,0-.44-2.57c-2-5.79-4.33-11.48-6.06-17.34a13.06,13.06,0,0,0-8.12-8.76c-10.25-4.2-20.68-2.36-30.74.4C422.49,286.2,415.16,289.91,407.64,292.92Z"/><path class="cls-5" d="M425.4,458.16c.16.08.47.25.48.24,3.34-5.3,8.59-2.58,13.06-3.12,5-.61,10-1.26,14.95-1.89,3.21-.77,6.42-1.57,9.65-2.32,5.67-1.32,11.3-3.18,17-3.73a9.51,9.51,0,0,1,9.65,5,16.81,16.81,0,0,0,3.88-.94c6.37-3.27,12-1.77,16.58,3.78,2.08,2.51,5.29,4.07,7.86,6.21a7.16,7.16,0,0,1,1.35,2.33L509.57,465c.87,3.37-4.79,12.28-9.22,14.53-5.57,2.84-11.39,1.93-17.08,1.12-8.93-1.27-17.86-2.76-26.64-4.81a11.49,11.49,0,0,1-6.62-5.29c-3.52-6.55-9.68-8.6-15.93-10.71-2.63-.89-5.36-1.48-8.06-2.16-.14,0-.38.28-.58.43Zm64.54,18.45,3-3.41,3.17,4.47a26.3,26.3,0,0,0,2-2.53c.7-1.11,1.22-2.33,1.82-3.5l2.84,2.36,2.77-7.4a20.1,20.1,0,0,0-2.93-.43c-5.93.1-12.06,1.25-17.74.13a37.74,37.74,0,0,0-18.66.94l6.47,5c1.58-.61,2.69-1.32,3.82-1.36.47,0,1.05,1.33,1.49,2.12s.75,2.26,1.07,2.25a12.68,12.68,0,0,0,3.66-1c.88-.32,1.68-.92,2.57-1.2.27-.09,1.08.48,1.06.7C486,477.46,488.74,476.3,489.94,476.61Zm.54-18.4,19.1,1.62c-6.84-8.3-6.84-8.3-18.49-5.15Z"/><path class="cls-5" d="M376.35,368.44c10.5,13.1,17.19,18.13,20.06,20.17a80.67,80.67,0,0,0,10.31,6.2l-4.37,4.54v14.49l-1.82-1.12q-.43-6.3-.88-12.58L396.4,398v22l-1.82-1.23q-.65-5.69-1.33-11.43-.64-5.55-1.34-11.05l-3.76-3q.27,4.75.49,9.58.36,7.69.6,15.25l-2.05-.64c-.74-4-1.41-8.19-2-12.63-.62-5-1-9.73-1.3-14.21l-4.1-4q.48,7.31.78,14.93.24,6.11.35,12l-2.5,0a171.27,171.27,0,0,1-2-17.72c-.26-4.06-.36-7.94-.35-11.62L372,379.44q.23,6.56.35,13.27.18,9.75.15,19.17c-.92-1.11-2.53-2.14-2.65-3.33-.68-6.78-1.83-11.47-1.89-23.12,0-2.18-.08-5.43-.41-9.4l-3.58-5.59q.15,6,.26,12.14.21,11.69.3,23.19l-1.61-1.35q-3.25-19.8-5.77-41-1-8.37-1.78-16.56l3.66-3.83A208.68,208.68,0,0,0,376.35,368.44Z"/><path class="cls-5" d="M458.84,230.85a133.1,133.1,0,0,0-29.3,1.08l-36.88,9.58-1.49-2.62,4.63-3.71a237.48,237.48,0,0,1-2.13-24.1q-.17-4.54-.16-8.9a1.62,1.62,0,0,1,1.17-.79c.87,0,1.91,1.08,2.09,2.88q.18,3.76.46,7.63c.56,7.83,1.4,15.32,2.45,22.44l.18.58,4.24-1.1c-.88-5.87-1.64-12.06-2.21-18.55q-.56-6.26-.83-12.16a1.94,1.94,0,0,1,1.82-.76,2,2,0,0,1,1.62,1.86c.07,3.49.26,7.17.59,11a166.08,166.08,0,0,0,2.48,17.65l5.09-1.49-2.93-25.79c-.41-2,.6-3.55,1.61-3.75s2.74,1,2.91,3.21l2.09,24.87,4.46-1.38-1.32-21c-.13-1.31.37-2.4,1-2.57s2,.69,2.35,2.45L425,227.68a3.47,3.47,0,0,0,2.08.12,3.34,3.34,0,0,0,1.22-.61c-.31-3.34-.59-6.77-.83-10.27q-.3-4.47-.48-8.77a1.7,1.7,0,0,1,.82-1.31,1.74,1.74,0,0,1,1.44-.08q.45,4.41,1.11,9.07c.52,3.72,1.12,7.31,1.76,10.74L436,226q-.6-3.89-1.08-8.09-.34-3.15-.58-6.15c-.19-1.28.25-2.36.84-2.55s1.91.6,2.32,2.28q.76,7.1,1.51,14.21l4.37-.57q-.25-6.57-.52-13.13a1.33,1.33,0,0,1,1-1.53,1.34,1.34,0,0,1,1.6.94q1,6.87,2,13.72l3.78.21.06-10a1.23,1.23,0,1,1,2.44.05L455,225.48l3.36.09.57-10a1.48,1.48,0,0,1,2.78.06c.43,3.5.86,7,1.28,10.51l4.51,1.66L468,218a2.83,2.83,0,0,1,1.4.09,2.68,2.68,0,0,1,1.15.77,43.63,43.63,0,0,0,.38,5.74,44.33,44.33,0,0,0,.83,4.37l3,.21.5-8.64a1.42,1.42,0,0,1,1.1-.23,1.51,1.51,0,0,1,1.09,1.36l.22,8,2.33,2.42-1.07,1.82A133.76,133.76,0,0,0,458.84,230.85Z"/><path class="cls-5" d="M423.05,325.28c-6.4-2.12-9.13-5.07-10.41-7.49-.92-1.73-2.75-3.07-4.1-5.24-.46-.74-2.65-.43-4.05-.56-.65-.07-1.32,0-3.37,0,3.14-2,5-3.57,7.18-4.54,8.94-4,17.56-8.93,27.52-10.15,7.95-1,15.29,1.07,21,6.4,5,4.63,8.94,10.37,13.25,15.71.44.54.54,2.11.15,2.43a20.49,20.49,0,0,1-4.49,2.77c-2,.95-4.16,1.59-6.21,2.47a30.22,30.22,0,0,0-3.11,1.8,54,54,0,0,1-27.95-1.41A49.34,49.34,0,0,1,423.05,325.28Zm-8.51-15.07-6.32,1.11,4.83,1.56,5.08,5.07,0-.11,0,.15c-.63-2.71-1.25-5.41-1.9-8.23Zm48,9.32-.27-4.29c-1.1-4.12-6.53-8.3-10.87-8.37l-1.56-.48c2.88,9.26-2,14.81-8.56,19.46,5.14,2.73,10.13,1.12,15.09-.86l4.67-2.75,1.5-2.73Zm-36.16-12.39c-2.7.64-3.93,4.31-1.85,8,2,3.53,5,4.55,8.77,3.71,4-.89,6.73-2.79,6.52-7.59-.21-5-.87-5.9-4.75-4.46,2.76,2.89,1.35,5.81-.75,7.81-1,1-4.72.92-5.41,0C427.44,312.68,427.18,309.85,426.36,307.14Z"/><path class="cls-5" d="M581.37,326.43c-9.42,7.39-19,11.34-29.83,11-4.33-.15-8.58-2.89-12.85-4.49A24.53,24.53,0,0,0,535,331.4c-1-.2-2.19.33-3.3.35s-2.61.18-3.15-.43c-.69-.79-1.22-2.64-.76-3.41,5.8-9.79,15.2-13.46,25.9-15.09,6-.92,12.08-1.83,17.07,2.32C574.55,318.26,577.55,322.29,581.37,326.43ZM559.07,334l16.9-7.48-11.27-7.84C562.64,324.28,560.83,329.23,559.07,334Zm-14.85-13.52-1,.13c.32,2.39,0,5.19,1.15,7.05,1,1.5,3.74,2.68,5.64,2.58,4.41-.24,6.83-4,6.74-9.64,0-.66-.93-1.3-1.42-2-.31.69-.92,1.39-.87,2.05.21,3.11-2.94,6.83-6.23,6.68s-3.67-2.94-3.94-5.54C544.28,321.39,544.25,320.94,544.22,320.48Zm-7.17,2.41-3,2,3,.48Zm41.48,5.24s-.12.08-.11.11a1.2,1.2,0,0,0,.11.23s.11-.08.11-.11A1,1,0,0,0,578.53,328.13Z"/><path class="cls-5" d="M533.88,456.06c-1.31,2.31-2.13,5.78-4.06,6.58-1.69.7-4.67-1.51-7-2.59-5.39-2.52-6.23-7.8-7.22-12.75-1.05-5.19-5.75-7.61-8.13-11.69a60.86,60.86,0,0,1-3.87-9.13,4.2,4.2,0,0,1,2.16-1.07A17.24,17.24,0,0,1,520,433.75c.59.93.76,2.14,1.4,3a59.31,59.31,0,0,0,6.07,7.79C530.66,447.67,533.24,450.84,533.88,456.06Z"/><path class="cls-5" d="M580.11,317.21a34.75,34.75,0,0,1-4.45-4.37,9.19,9.19,0,0,0-8.72-4.2c-8.94.72-18,.94-26.73,2.66-3.5.69-6.39,4.74-9.42,7.42a52.43,52.43,0,0,0-3.67,4.29,1.65,1.65,0,0,1-1.15.28c-.27-.56-.72-1.39-.5-1.77,3.67-6.26,7.35-13,15.32-14.13,10.37-1.45,20.87-2.06,31.33-2.75,1.31-.09,3.06,1.22,4,2.38a77.19,77.19,0,0,1,5.11,7.45,3.06,3.06,0,0,1,.52,1.69C581.75,316.42,581,316.65,580.11,317.21Z"/><path class="cls-5" d="M494.46,494.07c-2.94-.63-5.91-1.85-8.83-1.75a75,75,0,0,0-13.78,2c-3.3.75-5.68-.37-7-2.93-1.95-3.75,2.47-4.14,3.8-4.36,8.41-1.38,16.93-2,24.38,3.52a13.86,13.86,0,0,1,2.16,2.67Z"/><path class="cls-5" d="M552.22,341.43c-1.21.49-2.45,1.45-3.65,1.41-5.72-.19-11.43-.73-15.5-5.52-.55-.66-.47-1.84-.69-2.78.75-.09,1.62-.49,2.21-.23,2.86,1.23,5.57,2.86,8.49,3.93s5.86,1.56,8.8,2.31Z"/><path class="cls-5" d="M425.44,458.09l.1.25.16-.22-.3,0S425.44,458.09,425.44,458.09Z"/><path class="cls-5" d="M530.18,501.89l0,.14,0-.1Z"/><path class="cls-5" d="M395.76,314.15l-9.88-5.57,3.28-1.9a14.78,14.78,0,0,1,3-.25c5.68.74,9.75-2.05,12.56-6.42,4.41-6.85,11.25-7.16,18.19-7.79s13.66-1.82,20.51-2.11c7.94-.34,15.52,1.22,21.44,7.18,1.5,1.5,2.74,3.24,4.67,5.56-6.4.32-9.23-4.53-13.54-6.25-1.44-.69-2.81-1.74-4.32-2-8.6-1.53-16.88.56-25.13,2.54-4.62,1.1-9.26,2.2-13.74,3.73-2.22.77-4.2,2.4-6.12,3.86-2.72,2.07-5.3,4.34-6.95,5.71l10.76,13.68Z"/><path class="cls-5" d="M348.76,402.29h.42l-.17.28Z"/><path class="cls-5" d="M457.46,593.61c-6.76-.26-13.58,0-20.26-.88-15.61-2-30.56-6.65-45.33-11.93a13,13,0,0,0-2.37-.4,30.54,30.54,0,0,0-5.17-2.18c-7.77-1.73-11.54-7.3-14.35-14.09-1.66-4-3.86-7.77-5.69-11.7a9.66,9.66,0,0,1-.38-2.89,12.92,12.92,0,0,1,2.84,1.39c5.44,4.55,10.82,9.18,16.22,13.78,10.69,8.26,23.4,11.87,35.87,16.37A131.74,131.74,0,0,0,463,589c.3.09.61.16.9.27.9.32,1.79.66,2.68,1a36.12,36.12,0,0,1-3.77,1.8C461.09,592.7,459.26,593.11,457.46,593.61Z"/><path class="cls-5" d="M240.49,669.09l.22-.15,0,.23-.22-.12Z"/><path class="cls-5" d="M311.86,665.07l.63,3-.87.14-.3-3.1Z"/><path class="cls-5" d="M472.12,724.41h7.47c0-.17,0-.34.05-.51-2.48.15-5,.26-7.5.35Z"/><path class="cls-5" d="M488.19,724.37H496c-.09-.6-.15-1.19-.23-1.79-2.57.28-5.17.52-7.78.74Z"/><path class="cls-5" d="M723,601.87l.88-1.19-1,1.11Z"/><path class="cls-5" d="M453.75,724.41Z"/><path class="cls-5" d="M575.73,706.39l29.13-12.76c.69-1,1.59-2.23,2.64-3.63-10,4.91-20.61,9.53-31.77,13.68Z"/><path class="cls-5" d="M308.93,293.12h0v0Z"/><path class="cls-5" d="M347.84,402.59l-.07-.1v0h0Z"/><path class="cls-5" d="M315.63,302.68h0l.17.09Z"/><path class="cls-5" d="M318.79,315.13l-.09,0v0a.39.39,0,0,0,.08.1Z"/><path class="cls-5" d="M663,540.5a383,383,0,0,0-43.81-24.88l-7.64-8.88,0,0-.41-.14c-22.94-24.84-37.15,7.92-67.94-16.88A354.39,354.39,0,0,0,592.94,367.6a345.77,345.77,0,0,0,6.41-53c2.15-4.61,37.59-83.86-6.26-144.49-15-20.71-34.16-32.26-47.89-38.59a190.42,190.42,0,0,0-59.52-20.62c-50.69-8.45-127.74.5-159.29,50.6-13.95,22.15-16.63,48.57-18.2,64-3,29.63.6,66,.73,67.59h0a.17.17,0,0,1,0-.07l.08.09-.07,0v0a32.41,32.41,0,0,0-15.22-1.83c-2.13.26-10.08,1.22-15.68,6.44-8.84,8.25-7,22.62-5.62,33.35A80.26,80.26,0,0,0,284.47,364l0,0c6.47,11.27,12.69,23.62,18.61,34.3,22.35,14.4,9-16.63,23.51,111.59C313.71,511.38,303.75,520,294.37,527l.08,0c-17.34,15.43-33.2,23.76-44.78,28.55-9.77,4-16.61,5.61-36.65,13.06-13.14,4.88-23.81,9.27-30.93,12.28q3.27,4.45,6.53,8.9a179.81,179.81,0,0,1,23-11.27c3.45-1.39,6.82-2.63,10.07-3.72-5.05,17.65-8.41,28.62-6.87,45,3.49,3.5,7.45,7.31,11.87,11.34-2.71-10.78-5.44-22-2.82-32.23-.25-15,11.15-31.42,23.69-33.66-25.83,47.23,10.68,14.78-15,71.16,3.51,3.07,7.26,6.24,11.26,9.46,3.53-16,9.11-38.53,13.34-71.6,21-18.22,36.75-47.49,64.07-56.57-36.35,41.36-32.63,17.62-39.95,154.81q8.13,5.06,17,9.94c1.35-25.64,4-51.36,4.43-76.72.31-30.51-8.7-41.65,17.48-74.79,13.63,37-3.21,93.84-9.13,158.19q5.29,2.63,10.81,5.15c-2.33-40.92,5.57-81.23,10-122.18,5.68,43.12,6.1,85.71,5.08,128.61a330.82,330.82,0,0,0,109.43,23.47c2.38.05,4.76.12,7.11.22h.21c7.21-34.61,20.13-67.25,35-99.33-7.49,33-12.16,66-16.64,99.17,2.52-.09,5-.2,7.5-.35,1.06-8.77,1.32-18.72,3.28-26.54,1.73,8.89,3.4,17.43,5.06,26,2.61-.22,5.21-.46,7.78-.74-6.77-48.41,3.92-96.4,24.63-139.6,1.86-28.18,4.66-55,15.16-81.18,6.89-15.63,7.3-3,11.63,5.15C561.87,518.66,596,479,612.82,520.23c12.91,17.35.65,16.45-6.58,35.41-5.5,14.45-15.12,31.88-23.4,73.87a378.24,378.24,0,0,0-7.11,74.17c11.16-4.15,21.75-8.77,31.77-13.68,1.29-1.74,2.82-3.72,4.61-5.9C634.35,657,654.8,649.73,669,636.77c11-10.08,23.43-28.33,26.56-64.16l27.38,29.18,1-1.11,4.34-5.87A382.11,382.11,0,0,0,663,540.5ZM296.65,377.61c-1,.34-9.28-19.09-15.13-40.22a259.33,259.33,0,0,1-6-27.34c12.75-15.34,19.34-18.77,40.1-7.37h0l.16.09-.17-.09a.21.21,0,0,0-.16.28c17.14,8.38,21.23,40.89,16.88,63.91-6.72-16.64-3.37-37.23-13.8-51.39l.15-.36c-9.19-11.71-34.17-22.48-38.33-1.55.13,14.67,9,28.35,10.74,41.66C296.44,373.48,297.09,377.46,296.65,377.61Zm30.4-8.78c-11-6.66-12.47-17.25-4.63-31.8C320.6,349.21,327,358.25,327.05,368.83Zm-26.47,14.79c7.14,7.51,14.69,13.66,27.35,8.3-30.12-4.79-29.54-26.59-31.25-54.56,3.64-12.74.41-37.41,19.72-17.35,2.85,2.7,3.71,4.33,2.81,7.4-6.09,9.95-18.66,18.54-12.89,30.92,4.46,9,9.2,17.71,22.46,19.07C340,402.11,312.78,415.68,300.58,383.62Zm41.39,224c15.3,9.76,21.93,24.45,25.49,41.4C346.65,638.86,335.24,643.3,342,607.67Zm20.47,23.44.11.13-.13.11C362.18,631.16,362.46,631.16,362.44,631.11Zm14.46,19.56c-11.52-56.9-45.34-105.35-49.08-170-.06-24.46-8.45-52.38-.6-75.11l1.29.51c-3.34,12.35-2.69,14.18,4.15,26-8.64,15.69.35,29.57,1,47.11,2.71,8.39,15.49,9.78,23.21,15.13l-4,1.85c6.79,6.75,13.87,13.4,19.57,20.53-6.52-4.5-13.4-9.67-19.94-12.46.07,8.61,17.45,13.65,20,22.14-48.44-15.52,43.26,37.88,56.12,44.5,13.69,7.64,31.08,5.38,45.52,6.82,4.16-7.39,12.14-6,14.7-13.69,8.09-3,13.49-7.71,19-13.13C494,603,447.27,656.46,376.9,650.67Zm2.36-136.28c.29-.36.59-.72.88-1.09C391.44,523,404.35,528.79,415,538c5.16,7.87,5.88,16.33,12.35,22.35C405.84,550.63,389.08,536.1,379.26,514.39Zm150.85-12.46.07,0C523.12,508.42,499.35,556,486,541.7l-1.67,1.88C471.44,515,476,554,458.63,539.89a11.25,11.25,0,0,1-3,2.26h0l-.38.2-1.16-.35c-7.83-15.29-33.61,1.07-66.3-32.07-11,.76-10.8-8.86-17-14-.92,3.6-.95,3.36-.42,6.11-5.6-5.67-9-10.56-7.5-17.36l-3.15,1.46c-22.44-16.61-15.76-43.77-16-70.36l3.58-1.5L344.31,409c6.55-2.37,6.77-3.87,4.45-6.72l-1,.18v0l.07.1-.1-.11h0c-.33-3.61-1.87-5.5-.88-8,19.37-9.52-6.44-16.87,2.31-26.62.07.39.18,1,.28,1.53l1.31,0c1.12-12.77-4.22-9.61-4.48-46.58a54.65,54.65,0,0,0-2.66-9.86c-.48-1.3-1-2.52-1.53-3.66l10.44-38.84c4.45-2.85,9.09-6,13.86-9.57,5.15-3.82,9.87-7.63,14.17-11.33l-.27-2.53a120.74,120.74,0,0,0-24.85,10.74c.51-3,1-6,1.52-9a105.22,105.22,0,0,1,15.26-16.3,103.51,103.51,0,0,1,10.11-7.71l.6-5.1a142.05,142.05,0,0,0-13.36,7.77,146.89,146.89,0,0,0-12,8.76l1.17-4.65q6-5.4,12.08-11.06,9.18-8.57,17.73-17l-1.38-1.89q-6.21,4.45-13.08,9-6.66,4.36-13,8.18l.48-4q5.81-5,11.88-10.83c4-3.83,7.71-7.61,11.18-11.29-.38-1-.77-1.92-1.16-2.87-4.48,3.36-9.25,6.74-14.33,10.09q-3.59,2.37-7.1,4.54l1.51-4.66a104,104,0,0,0,11-9.38,102.3,102.3,0,0,0,7.93-8.71c0-1-.09-2.06-.13-3.09l-17.67,12.22c20.8-38.83,27.78-72.22,88.37-56.26v0c18.11,1.8,30.46,15.28,46.69,21.48,8.52-.31,30.32,3.1,27.18-11,5.49-15,43.89,2.8,52.79,15.93l0,0c34.2,35.89,32.67,76.06,21,137.64-10.15-18.8-22.89-15.57-44.36-12.81-13.77,2.38-19.51-3-29.75,15.31,18.31,1.87,31.17-6,58.54-2.32l-4.9-4.63c7.32-4.35,14.15,4.85,18.85,9.22C583.16,328.26,614,368.84,530.11,501.93Zm133.81,84.64c-13.66,21.51-27.11,40.17-45.73,57.61-12.38,16.87-19.67,36.82-30.26,54.24-1.42-26.23,2.63-52.14,18.88-73.2,17.07-26.8,46.31-48.32,31.21-85.32,10.52-2.11,16.5,6,22.73,14.91,4.13,2.6,9.72-1.39,14,1.07C694.86,568.42,676.32,568.15,663.92,586.57Z"/><path class="cls-5" d="M240.49,669.09h0l0,0Z"/><path class="cls-5" d="M542.3,701.6c1.08-8.27,2.56-16.49,4-24.71,2.47-14,4.45-28.11,7.8-41.89,2.38-9.8,6.68-19.13,10.12-28.67.61-1.78,1.32-3.54,1.83-5.36,2.36-8.55,4.67-17.12,7-25.69,3.18-7.91,6.44-15.8,9.52-23.75,3.56-9.2,7.1-18.41,10.4-27.7,2-5.54,2.45-11.34-2-16-1.31-1.36-4.28-1.21-6.52-1.56-11.15-1.74-15.69,1.21-22.28,9.64-1.21,8.75-2.12,17.55-3.73,26.22-1.3,7-3.69,13.73-5.2,20.68-3.69,17-7.62,34-10.54,51.11-2.5,14.66-3.75,29.52-5.46,44.3-.28,2.35,0,4.75-.69,7.18-.35-4.26-.66-8.51-1.08-12.75-.81-8-2-16-2.45-24.05-.35-7.16.35-14.37.24-21.55,0-1.85-1.33-3.68-2-5.52a19.82,19.82,0,0,0-1.11,2.67c-2,7.55-2.9,15.57-6.09,22.56a109.44,109.44,0,0,0-9.45,33.25c-1.28,11-2.08,22.07-3.22,33.1-.95,9.27-2,18.53-3.07,27.83,2.46-.36,4.89-.75,7.32-1.16.41-4.29.84-8.59,1.11-12.89.53-8.65.28-17.39,1.43-26,1.4-10.38,3.68-20.66,6-30.88,1.12-4.82,3.31-9.4,5.27-14.78.76,6.89,1.19,13.16,2.2,19.34,1.72,10.65,3.81,21.25,5.73,31.87.27,1.5.45,3,.67,4.51q.07,4,.14,8.07,0,8,0,16.07c1.42-.34,2.82-.7,4.22-1.06v-1.71C542.38,708.8,541.83,705.14,542.3,701.6Z"/><path class="cls-5" d="M276.09,630.88c.12-8.5.51-17,.76-25.48.17-5.93.36-11.86.43-17.79a29.59,29.59,0,0,0-.59-5.21,1.92,1.92,0,0,0-1.42-.32c-.87,1.12-2,2.27-2.27,3.57-.62,3.48-.45,7.13-1.27,10.55-1.84,7.72-4.14,15.32-6.18,23-2.24,8.38-4.88,16.68-6.44,25.19a71.34,71.34,0,0,0-.77,12.61c5.44,4,11.23,8,17.35,11.93l.14-1.28C275.91,655.39,275.91,643.13,276.09,630.88Z"/></g></svg>