<?xml version="1.0" encoding="UTF-8"?>
<svg id="contact01" data-name="Calque 1" xmlns="http://www.w3.org/2000/svg" viewBox="0 0 874 874">
  <defs>
    <style>
      .cls-1 {
        isolation: isolate;
      }

      .cls-2 {
        fill: #0c0028;
      }

      .cls-2, .cls-3, .cls-4 {
        stroke-width: 0px;
      }

      .cls-3 {
        fill: #424afa;
      }

      .cls-4 {
        fill: #41338a;
      }
    </style>
  </defs>
  <g class="cls-1">
    <circle class="cls-2" cx="437" cy="437" r="437"/>
  </g>
  <path class="cls-4" d="m805.54,370.12c-2.73-15.5-6.38-30.68-10.95-45.52-10.06-33.16-24.62-64.59-43.56-93.84-26.22-40.5-59.63-75.13-99.31-102.92s-83.64-47.36-130.66-58.16c-48.71-11.19-98.55-12.43-148.14-3.69-79.67,14.04-151.07,52.47-206.45,111.16-26.63,28.21-48.63,60.25-65.4,95.22-17,35.45-28.23,73.12-33.38,111.97l.58.08c-5.21,38.12-4.45,76.73,2.33,115.19,14.04,79.67,52.47,151.06,111.16,206.45,28.21,26.63,60.25,48.63,95.22,65.4,35.45,17,73.12,28.23,111.97,33.38l.19-1.41c16.09,2.09,32.33,3.16,48.56,3.16,21.7,0,43.39-1.88,64.71-5.65,49.59-8.74,96-26.94,137.96-54.1,27.41-17.75,52.12-38.8,73.85-62.84l.92.83c37.83-41.87,66.06-92.67,81.64-146.9,15.58-54.23,18.61-112.27,8.78-167.79Zm-319.15,340.2c-85.9,15.21-172.28-9.6-237.01-68.08l-.71.78c-44.85-40.83-76.33-96.18-87.47-159.39-13.03-73.95,3.52-148.55,46.6-210.06,43.08-61.5,107.53-102.55,181.49-115.58,143.03-25.2,280.26,63.02,319.15,199.82,2.44,8.8,4.47,17.76,6.08,26.86,26.89,152.66-75.42,298.74-228.13,325.64Z"/>
  <g id="Ellipse_1" data-name="Ellipse 1">
    <path class="cls-4" d="m438.11,623.72c-.64,0-1.28,0-1.93,0-104.82-1.05-189.24-87.18-188.19-191.99,1.05-104.82,87.16-189.24,191.99-188.19,104.82,1.05,189.24,87.18,188.19,191.99-1.04,104.17-86.12,188.2-190.06,188.2Zm-.06-363.21c-94.65,0-172.12,76.51-173.07,171.37-.95,95.44,75.92,173.87,171.36,174.82.58,0,1.18,0,1.76,0,94.65,0,172.12-76.51,173.07-171.37.95-95.44-75.92-173.87-171.36-174.82-.58,0-1.18,0-1.76,0Z"/>
  </g>
  <g id="Ellipse_2" data-name="Ellipse 2">
    <path class="cls-4" d="m438.1,587.72c-.52,0-1.04,0-1.57,0-41.16-.41-79.69-16.83-108.5-46.22-28.81-29.39-44.45-68.25-44.04-109.41s16.83-79.69,46.22-108.5c29.39-28.81,68.23-44.45,109.41-44.04,84.96.85,153.39,70.66,152.54,155.63-.84,84.44-69.81,152.55-154.06,152.55Zm-.04-225.19c-18.72,0-36.36,7.2-49.74,20.32-13.56,13.29-21.13,31.07-21.32,50.06h0c-.39,39.2,31.18,71.41,70.38,71.8.24,0,.48,0,.72,0,38.87,0,70.69-31.42,71.08-70.38.39-39.2-31.18-71.41-70.38-71.8-.24,0-.49,0-.73,0Z"/>
  </g>
  <path class="cls-3" d="m698.46,329.19c-14.11-34.94-34.64-66.07-60.33-92.12-25.53-26.01-56.19-46.98-90.75-61.66-69.04-29.32-145.37-29.99-214.9-1.91-29.36,11.82-56.31,28.39-80.11,49.26l.38.44c-31.36,27.48-56.38,61.89-73.16,101.4-29.24,68.87-29.98,144.99-2.12,214.38l-.24.1c28.09,69.55,81.58,124,150.63,153.32,35.3,14.99,72.5,22.49,109.72,22.49s71.21-6.86,105.2-20.59c.08-.03.16-.07.23-.1l.22.55c69.55-28.09,124-81.58,153.32-150.63s29.99-145.37,1.9-214.92Zm-439.93,259.68c-.39-.46-.79-.91-1.18-1.37-.4-.47-.79-.95-1.19-1.42-15.78-18.94-28.44-40.1-37.67-63.03-23.69-58.66-23.12-123.02,1.6-181.25,24.72-58.23,70.64-103.34,129.3-127.03,58.65-23.69,123.02-23.12,181.25,1.6,28.94,12.29,54.64,29.82,76.08,51.55,21.48,21.89,38.66,48,50.49,77.3,23.69,58.65,23.12,123.02-1.6,181.25s-70.64,103.34-129.3,127.03c-96.23,38.86-203.32,9.75-267.78-64.62Z"/>
  <path class="cls-3" d="m829.65,287.9c-19.34-50.74-47.99-96.71-85.14-136.63-30.19-32.44-64.76-59.57-103.07-80.9-.3-.17-.6-.32-.9-.49-2.65-1.47-5.32-2.92-8-4.33-5.98-3.14-12.05-6.15-18.2-9.02-50.96-23.75-105.52-36.82-162.17-38.86-56.65-2.04-112.01,7.08-164.55,27.11-50.74,19.34-96.7,47.99-136.63,85.14-39.92,37.15-71.8,80.95-94.73,130.16-23.75,50.96-36.82,105.52-38.86,162.17-.1,2.67-.16,5.34-.21,8,0,.5-.02,1-.03,1.5-.03,2.44-.05,4.88-.04,7.32,0,.75,0,1.49.02,2.24.02,2.19.05,4.37.1,6.55.02.67.03,1.34.05,2.01.06,2.19.14,4.37.24,6.56.03.63.05,1.27.08,1.9.12,2.52.27,5.04.44,7.56.03.41.06.81.08,1.22,2.85,41.02,11.66,81.12,26.37,119.69,19.34,50.74,47.99,96.71,85.14,136.63,37.15,39.93,80.95,71.8,130.16,94.73,50.96,23.75,105.52,36.82,162.17,38.86,0,0,.01,0,.02,0h0c2.6.1,5.19.17,7.78.22,2.61.05,5.21.07,7.82.07,3,0,6-.04,9-.11.64-.01,1.28-.04,1.92-.05,2.3-.06,4.6-.14,6.9-.23.97-.04,1.94-.09,2.91-.14,1.93-.1,3.85-.2,5.77-.33,1.17-.07,2.34-.15,3.5-.23,1.64-.12,3.28-.25,4.92-.39,1.37-.11,2.75-.22,4.12-.35.79-.07,1.59-.16,2.38-.24,4.35-.43,8.69-.92,13.02-1.49.14-.02.27-.03.41-.05,2.42-.32,4.83-.67,7.24-1.03.24-.04.48-.07.71-.11,17.99-2.72,35.76-6.62,53.26-11.68.17-.05.33-.1.5-.15,2.39-.69,4.77-1.4,7.14-2.14.03,0,.05-.02.08-.02h0c8.45-2.62,16.84-5.5,25.15-8.67,50.73-19.34,96.7-47.99,136.63-85.14,39.92-37.15,71.8-80.95,94.73-130.16,23.75-50.96,36.82-105.52,38.86-162.17,2.04-56.65-7.08-112.01-27.11-164.55Zm-376.17,552.08c-.83.03-1.66.06-2.5.09-1.73.06-3.47.11-5.21.14-1.53.03-3.07.06-4.6.07-.95,0-1.9.02-2.85.02-1.51,0-3.02-.01-4.53-.02-1.08,0-2.17-.01-3.26-.03-2.65-.05-5.3-.11-7.95-.21-107.56-3.87-207.18-49.39-280.51-128.18-41.97-45.1-72.44-98.01-90.11-155.18l.09-.03c-9.16-29.62-14.83-59.99-16.98-90.73-.03-.44-.06-.88-.09-1.32-.16-2.38-.3-4.75-.41-7.13-.03-.66-.06-1.32-.09-1.98-.08-1.9-.15-3.8-.21-5.7-.02-.78-.05-1.56-.07-2.34-.05-2.08-.08-4.15-.1-6.23,0-.77-.01-1.53-.02-2.3,0-2.32,0-4.64.04-6.96,0-.46.02-.91.02-1.37.05-2.57.11-5.14.2-7.72,3.87-107.56,49.39-207.18,128.18-280.51S344.02,30.82,451.56,34.67c4.38.16,8.75.39,13.1.69.74.05,1.47.1,2.21.15.5.04,1,.08,1.5.12,1.28.1,2.56.2,3.83.31.04,0,.08,0,.12.01,212.03,18.49,375.17,200.82,367.45,415.88h0s0,0,0,.01c-7.61,211.68-178.02,379.82-386.29,388.15Z"/>
  <g id="Tracé_4" data-name="Tracé 4">
    <path class="cls-3" d="m382.71,434.03c0-30.65,24.85-55.5,55.5-55.5s55.5,24.85,55.5,55.5-24.85,55.5-55.5,55.5-55.5-24.85-55.5-55.5h0"/>
  </g>
</svg>