<svg id="Calque_1" data-name="Calque 1" xmlns="http://www.w3.org/2000/svg" xmlns:xlink="http://www.w3.org/1999/xlink" viewBox="0 0 728.95 728.87"><defs><style>.cls-1{fill:url(#Dégradé_sans_nom_5);}.cls-2{fill:url(#Dégradé_sans_nom_5-2);}.cls-3{fill:url(#Dégradé_sans_nom_5-3);}.cls-4{fill:url(#Dégradé_sans_nom_5-4);}.cls-5{fill:url(#Dégradé_sans_nom_5-5);}</style><linearGradient id="Dégradé_sans_nom_5" x1="121.53" y1="455.86" x2="666.48" y2="445.41" gradientUnits="userSpaceOnUse"><stop offset="0" stop-color="#41348f"/><stop offset="1" stop-color="#4249f7"/></linearGradient><linearGradient id="Dégradé_sans_nom_5-2" x1="121.06" y1="431.03" x2="666.01" y2="420.58" xlink:href="#Dégradé_sans_nom_5"/><linearGradient id="Dégradé_sans_nom_5-3" x1="117.36" y1="238.44" x2="662.31" y2="227.98" xlink:href="#Dégradé_sans_nom_5"/><linearGradient id="Dégradé_sans_nom_5-4" x1="113.82" y1="53.85" x2="658.77" y2="43.4" xlink:href="#Dégradé_sans_nom_5"/><linearGradient id="Dégradé_sans_nom_5-5" x1="116.29" y1="182.54" x2="661.24" y2="172.09" xlink:href="#Dégradé_sans_nom_5"/></defs><title>favicon</title><path class="cls-1" d="M622.32,283.45c-46.14,16.93-92.25,33.93-138.48,50.6-6.35,2.3-9.47,5.35-9.23,12.38.33,9.64-.27,19.31-.36,29-.51,51.16-1.15,102.33-1.3,153.5,0,8.15-2.66,10.85-10.57,10.15-6.71-.59-13.54.19-20.28-.2-13.35-.78-24.72-9.54-24.87-19.83-.21-14.78.6-29.58.74-44.38.16-15.22,0-30.45,0-45.81-1.48,0-2.52-.26-3.36,0-23.59,8.46-47.22,16.78-70.61,25.77-2.49,1-4.75,5.77-5,8.93-1,16.36-1.06,32.79-2.13,49.15A30.73,30.73,0,0,1,332.33,527c-6.37,9.77-18.82,13.45-29.95,9.94-10.3-3.25-18.38-14-18.32-25.86.12-23.8.83-47.61,1.17-71.42.16-11,0-22.07,0-34.81C260,413.91,236.71,422,213.72,430.88c-2.27.88-4,6.1-4.07,9.32q-.35,40.08.13,80.17c.44,34.32,15,61.51,43.31,80.7,37,25.09,89.19,22.84,127.32-16.63l8.1,6c15.35,11.4,32.54,18.49,51.65,19.18,32.47,1.17,65,1.53,97.48,2.13,13,.24,13,.13,13.05-13.25q0-99.5,0-199c0-5.76.91-9.51,7.16-11.61,29.85-10,59.45-20.77,89.32-30.71,22.2-7.38,33.92-28.68,26.77-50.13C666.88,286,644,275.51,622.32,283.45Z"/><path class="cls-2" d="M210.38,297.13V359.5c24.07-8.45,45.45-16.32,67.11-23.35,7-2.29,9.52-5.6,9.52-13-.06-60.2.26-120.4.41-180.6,0-3.32-.5-6.63-.84-10.88-4.7,1.5-8.05,2.45-11.32,3.63-62.21,22.53-124.36,45.24-186.69,67.43-8,2.85-10.65,6.52-10.64,15.06q.41,249.19.2,498.4V728c4.72-1.45,8-2.35,11.26-3.48,17.57-6.18,35-13,52.76-18.4,9.18-2.8,11.36-7.67,11.35-16.65-.06-100.44.3-200.89.49-301.33.08-38.64.57-77.28-.31-115.9-.28-11.94,2.9-17.9,14.58-21.22,13.71-3.89,26.84-9.83,42.12-15.6Z"/><path class="cls-3" d="M338.86,349.3c0,12.45,0,24.9,0,37.94,3.53-.29,5.5-.06,7.18-.65,21.49-7.63,43-15.09,64.25-23.4,2.95-1.16,5.79-6.61,5.94-10.19.77-18.31.74-36.67.8-55,.13-40.55.1-81.11.25-121.66.06-16.1,16.33-28.83,31.49-24.89,14.44,3.76,23.65,15.32,23.9,31.08.31,20.27.1,40.55.11,60.82v23c26.33-9.33,50.2-17.7,74-26.35,1.65-.61,3.65-3.24,3.65-4.94.08-23.47,2.78-47.43-.94-70.33-7.52-46.23-49.52-83.27-92.34-85.55-53-2.82-96.83,26-112.88,74-6.13,18.32-6,37.05-5.72,56.12C339.26,256,338.83,302.64,338.86,349.3Z"/><path class="cls-4" d="M637,87.65A43.53,43.53,0,0,0,680.26,44c0-24.7-19.48-44.24-44-44a42.84,42.84,0,0,0-42.59,43.15C593.61,68.26,612.5,87.71,637,87.65Z"/><path class="cls-5" d="M636.83,129.3c-24.46,0-43.08,18.67-43.12,43.29-.05,25.18,17.74,43.18,42.72,43.23,25.14.06,43.67-17.84,43.83-42.33C680.42,148.44,661.63,129.33,636.83,129.3Z"/></svg>