<?xml version="1.0" encoding="UTF-8"?>
<svg id="Calque_1" data-name="Calque 1" xmlns="http://www.w3.org/2000/svg" viewBox="0 0 1055.22 252.22">
  <defs>
    <style>
      .cls-1 {
        fill: none;
      }

      .cls-1, .cls-2, .cls-3, .cls-4 {
        stroke-width: 0px;
      }

      .cls-2 {
        fill: #0c0028;
      }

      .cls-3 {
        fill: #424afa;
      }

      .cls-4 {
        fill: #41338a;
      }
    </style>
  </defs>
  <g>
    <circle class="cls-2" cx="548.01" cy="78.05" r="36.05"/>
    <g id="Ellipse_6" data-name="Ellipse 6">
      <path class="cls-4" d="m547.93,109.24c-17.16,0-31.12-13.96-31.12-31.12s13.96-31.12,31.12-31.12,31.12,13.96,31.12,31.12-13.96,31.12-31.12,31.12Zm0-49.86c-10.33,0-18.73,8.4-18.73,18.73s8.4,18.73,18.73,18.73,18.73-8.4,18.73-18.73-8.4-18.73-18.73-18.73Z"/>
    </g>
    <g id="Ellipse_7" data-name="Ellipse 7">
      <path class="cls-3" d="m547.93,101.97c-6.36,0-12.34-2.47-16.85-6.97-4.51-4.5-7-10.49-7.01-16.86-.02-13.15,10.67-23.87,23.82-23.88h.03c13.14,0,23.84,10.68,23.85,23.82,0,6.37-2.47,12.37-6.97,16.88-4.5,4.51-10.49,7-16.86,7.01h-.03Zm0-40.11h-.02c-8.96.01-16.24,7.31-16.23,16.27,0,4.34,1.7,8.42,4.77,11.49,3.07,3.06,7.14,4.75,11.48,4.75h.02c4.34,0,8.42-1.7,11.49-4.77s4.75-7.16,4.75-11.5c-.01-8.95-7.3-16.23-16.25-16.23Z"/>
    </g>
    <circle class="cls-1" cx="548.01" cy="78.05" r="16.05"/>
  </g>
  <g>
    <circle class="cls-2" cx="1013.11" cy="203.11" r="141.11"/>
    <g id="Ellipse_6-2" data-name="Ellipse 6">
      <path class="cls-3" d="m1013.11,326.79c-68.2,0-123.68-55.48-123.68-123.68s55.48-123.68,123.68-123.68,123.68,55.48,123.68,123.68-55.48,123.68-123.68,123.68Zm0-198.14c-41.05,0-74.45,33.4-74.45,74.45s33.4,74.45,74.45,74.45,74.45-33.4,74.45-74.45-33.4-74.45-74.45-74.45Z"/>
    </g>
    <path class="cls-4" d="m1013.11,96.13h-.14c-58.99.08-106.92,48.13-106.85,107.12.04,28.58,11.2,55.43,31.43,75.61,20.2,20.14,47.03,31.24,75.55,31.24h.14c28.58-.04,55.43-11.2,75.61-31.43,20.18-20.23,31.27-47.11,31.24-75.69-.08-58.91-48.07-106.84-106.98-106.84Zm66.3,106.9c.02,17.71-6.85,34.37-19.36,46.91-12.51,12.54-29.15,19.46-46.95,19.48-17.68,0-34.3-6.88-46.82-19.36-12.54-12.51-19.46-29.15-19.48-46.86-.05-36.56,29.66-66.34,66.21-66.39h.09c36.51,0,66.26,29.71,66.3,66.22Z"/>
    <circle class="cls-4" cx="1013.11" cy="203.11" r="33.69"/>
  </g>
  <g>
    <circle class="cls-2" cx="57.11" cy="59.11" r="57.11"/>
    <g id="Ellipse_6-3" data-name="Ellipse 6">
      <path class="cls-3" d="m57.11,109.17c-27.6,0-50.06-22.46-50.06-50.06S29.51,9.05,57.11,9.05s50.06,22.46,50.06,50.06-22.46,50.06-50.06,50.06Zm0-80.19c-16.61,0-30.13,13.52-30.13,30.13s13.52,30.13,30.13,30.13,30.13-13.52,30.13-30.13-13.52-30.13-30.13-30.13Z"/>
    </g>
    <path class="cls-4" d="m57.11,15.81h-.06c-23.87.03-43.27,19.48-43.24,43.35.01,11.57,4.53,22.43,12.72,30.6,8.17,8.15,19.03,12.64,30.58,12.64h.06c11.57-.01,22.43-4.53,30.6-12.72,8.17-8.19,12.66-19.07,12.64-30.63-.03-23.84-19.45-43.24-43.3-43.24Zm26.83,43.26c0,7.17-2.77,13.91-7.84,18.99-5.06,5.07-11.8,7.87-19,7.88-7.15,0-13.88-2.78-18.95-7.83-5.07-5.06-7.87-11.8-7.88-18.97-.02-14.8,12-26.85,26.8-26.87h.04c14.78,0,26.82,12.02,26.83,26.8Z"/>
    <circle class="cls-4" cx="57.11" cy="59.11" r="13.64"/>
  </g>
  <g>
    <circle class="cls-2" cx="342.11" cy="151.11" r="29.11"/>
    <g id="Ellipse_6-4" data-name="Ellipse 6">
      <path class="cls-3" d="m342.11,176.63c-14.07,0-25.52-11.45-25.52-25.52s11.45-25.52,25.52-25.52,25.52,11.45,25.52,25.52-11.45,25.52-25.52,25.52Zm0-40.87c-8.47,0-15.36,6.89-15.36,15.36s6.89,15.36,15.36,15.36,15.36-6.89,15.36-15.36-6.89-15.36-15.36-15.36Z"/>
    </g>
    <path class="cls-2" d="m342.11,129.04h-.03c-12.17.02-22.06,9.93-22.04,22.1,0,5.89,2.31,11.43,6.48,15.6,4.17,4.16,9.7,6.44,15.58,6.44h.03c5.9,0,11.43-2.31,15.6-6.48,4.16-4.17,6.45-9.72,6.44-15.61-.02-12.15-9.92-22.04-22.07-22.04Zm13.68,22.05c0,3.65-1.41,7.09-3.99,9.68-2.58,2.59-6.01,4.01-9.68,4.02-3.65,0-7.08-1.42-9.66-3.99-2.59-2.58-4.01-6.01-4.02-9.67,0-7.54,6.12-13.69,13.66-13.7h.02c7.53,0,13.67,6.13,13.68,13.66Z"/>
    <circle class="cls-3" cx="342.11" cy="151.11" r="14.11"/>
  </g>
  <g>
    <circle class="cls-2" cx="442.11" cy="218.11" r="71.11"/>
    <g id="Ellipse_6-5" data-name="Ellipse 6">
      <path class="cls-3" d="m442.11,280.44c-34.37,0-62.33-27.96-62.33-62.33s27.96-62.33,62.33-62.33,62.33,27.96,62.33,62.33-27.96,62.33-62.33,62.33Zm0-99.85c-20.69,0-37.52,16.83-37.52,37.52s16.83,37.52,37.52,37.52,37.52-16.83,37.52-37.52-16.83-37.52-37.52-37.52Z"/>
    </g>
    <path class="cls-4" d="m442.11,164.2h-.07c-29.73.04-53.88,24.25-53.84,53.98.02,14.4,5.64,27.93,15.84,38.1,10.18,10.15,23.7,15.74,38.07,15.74h.07c14.4-.02,27.93-5.64,38.1-15.84,10.17-10.2,15.76-23.74,15.74-38.14-.04-29.69-24.22-53.84-53.91-53.84Zm33.41,53.87c.01,8.93-3.45,17.32-9.76,23.64-6.3,6.32-14.69,9.8-23.66,9.82-8.91,0-17.29-3.46-23.6-9.76-6.32-6.3-9.8-14.69-9.82-23.61-.02-18.42,14.95-33.43,33.37-33.46h.05c18.4,0,33.39,14.97,33.41,33.37Z"/>
    <circle class="cls-3" cx="442.11" cy="218.11" r="34.47"/>
  </g>
  <g>
    <circle class="cls-2" cx="861.01" cy="259.55" r="92.55"/>
    <g id="Ellipse_6-6" data-name="Ellipse 6">
      <path class="cls-4" d="m860.81,339.61c-44.05,0-79.89-35.84-79.89-79.89s35.84-79.89,79.89-79.89,79.89,35.84,79.89,79.89-35.84,79.89-79.89,79.89Zm0-127.98c-26.52,0-48.09,21.57-48.09,48.09s21.57,48.09,48.09,48.09,48.09-21.57,48.09-48.09-21.57-48.09-48.09-48.09Z"/>
    </g>
    <g id="Ellipse_7-2" data-name="Ellipse 7">
      <path class="cls-3" d="m860.81,320.95c-16.33,0-31.68-6.35-43.24-17.88-11.58-11.55-17.97-26.92-17.99-43.28-.04-33.77,27.39-61.27,61.16-61.31h.08c33.73,0,61.19,27.42,61.23,61.16.02,16.36-6.33,31.74-17.88,43.32-11.55,11.58-26.92,17.97-43.28,17.99h-.08Zm0-102.95h-.05c-23,.03-41.7,18.77-41.67,41.77.01,11.14,4.37,21.61,12.26,29.48,7.88,7.86,18.34,12.18,29.46,12.18h.05c11.14-.01,21.62-4.37,29.49-12.26s12.2-18.37,12.18-29.52c-.03-22.99-18.74-41.67-41.72-41.67Z"/>
    </g>
    <circle class="cls-1" cx="861.01" cy="259.55" r="41.2"/>
  </g>
</svg>