<?xml version="1.0" encoding="UTF-8"?>
<svg id="Calque_1" data-name="Calque 1" xmlns="http://www.w3.org/2000/svg" viewBox="0 0 1329 142">
  <defs>
    <style>
      .cls-1 {
        fill: none;
      }

      .cls-1, .cls-2, .cls-3 {
        stroke-width: 0px;
      }

      .cls-2 {
        fill: #424afa;
      }

      .cls-3 {
        fill: #41338a;
      }
    </style>
  </defs>
  <polygon class="cls-1" points="109.78 56.1 168.17 116.1 226.56 56.1 284.95 116.1 343.34 56.1 401.73 116.1 460.12 56.09 518.5 116.09 576.89 56.09 635.28 116.09 693.67 56.09 752.06 116.1 810.45 56.1 868.84 116.1 927.24 56.1 985.63 116.1 1044.02 56.1 1102.41 116.1 1160.81 56.1 1219.2 116.1 1277.6 56.1 1329 108.9 1329 78.71 1277.6 25.9 1219.2 85.9 1160.81 25.9 1102.41 85.9 1044.02 25.9 985.63 85.9 927.24 25.9 868.84 85.9 810.45 25.9 752.06 85.9 693.67 25.91 635.28 85.91 576.89 25.9 518.5 85.91 460.12 25.91 401.73 85.9 343.34 25.9 284.95 85.9 226.56 25.9 168.17 85.9 109.78 25.9 51.39 85.9 0 33.1 0 63.29 51.39 116.1 109.78 56.1"/>
  <polygon class="cls-2" points="109.78 25.9 168.17 85.9 226.56 25.9 284.95 85.9 343.34 25.9 401.73 85.9 460.12 25.91 518.5 85.91 576.89 25.9 635.28 85.91 693.67 25.91 752.06 85.9 810.45 25.9 868.84 85.9 927.24 25.9 985.63 85.9 1044.02 25.9 1102.41 85.9 1160.81 25.9 1219.2 85.9 1277.6 25.9 1329 78.71 1329 52.9 1277.6 .1 1219.2 60.1 1160.81 .1 1102.41 60.1 1044.02 .1 985.63 60.1 927.24 .1 868.84 60.1 810.45 .1 752.06 60.1 693.67 .09 635.28 60.09 576.89 .09 518.5 60.09 460.12 .09 401.73 60.1 343.34 .1 284.95 60.1 226.56 .1 168.17 60.1 109.78 .1 51.39 60.1 0 7.29 0 33.1 51.39 85.9 109.78 25.9"/>
  <polygon class="cls-3" points="1277.6 56.1 1219.2 116.1 1160.81 56.1 1102.41 116.1 1044.02 56.1 985.63 116.1 927.24 56.1 868.84 116.1 810.45 56.1 752.06 116.1 693.67 56.09 635.28 116.09 576.89 56.09 518.5 116.09 460.12 56.09 401.73 116.1 343.34 56.1 284.95 116.1 226.56 56.1 168.17 116.1 109.78 56.1 51.39 116.1 0 63.29 0 89.1 51.39 141.9 109.78 81.9 168.17 141.9 226.56 81.9 284.95 141.9 343.34 81.9 401.73 141.9 460.12 81.91 518.5 141.91 576.89 81.9 635.28 141.91 693.67 81.91 752.06 141.9 810.45 81.9 868.84 141.9 927.24 81.9 985.63 141.9 1044.02 81.9 1102.41 141.9 1160.81 81.9 1219.2 141.9 1277.6 81.9 1329 134.71 1329 108.9 1277.6 56.1"/>
</svg>